<?xml version="1.0" encoding="UTF-8" standalone="no"?>
<!-- Created with Inkscape (http://www.inkscape.org/) -->

<svg
   version="1.1"
   id="svg2"
   width="5333.3335"
   height="4000"
   viewBox="0 0 5333.3335 4000"
   sodipodi:docname="online-19.eps"
   xmlns:inkscape="http://www.inkscape.org/namespaces/inkscape"
   xmlns:sodipodi="http://sodipodi.sourceforge.net/DTD/sodipodi-0.dtd"
   xmlns="http://www.w3.org/2000/svg"
   xmlns:svg="http://www.w3.org/2000/svg">
  <defs
     id="defs6" />
  <sodipodi:namedview
     id="namedview4"
     pagecolor="#ffffff"
     bordercolor="#000000"
     borderopacity="0.25"
     inkscape:showpageshadow="2"
     inkscape:pageopacity="0.0"
     inkscape:pagecheckerboard="0"
     inkscape:deskcolor="#d1d1d1" />
  <g
     id="g8"
     inkscape:groupmode="layer"
     inkscape:label="ink_ext_XXXXXX"
     transform="matrix(1.3333333,0,0,-1.3333333,0,4000)">
    <g
       id="g10"
       transform="scale(0.1)">
      <path
         d="M 0,0 H 40000 V 30000 H 0 Z"
         style="fill:transparent;fill-opacity:1;fill-rule:nonzero;stroke:none"
         id="path12" />
      <path
         d="m 30360.4,16307.7 c -201.8,0 -401,-10.5 -597.4,-30.9 179,39.4 371.9,75.8 574.9,105.3 941.3,136.9 2300,149.4 3426.7,-568 1029.1,-655.3 1702.7,-1800.4 2012.2,-3414.7 -752.9,2270.5 -2893.3,3908.3 -5416.4,3908.3 m -1838.6,249.8 c 0.8,46.3 1.3,92.6 1.3,139.1 0,4642.6 -3763.6,8406.2 -8406.2,8406.2 -3969.1,0 -7295.6,-2750.9 -8177.2,-6450.1 -353.6,55.7 -716,84.7 -1085.2,84.7 -3490.1,0 -6376.7,-2583.6 -6851.6,-5942.6 1.1,27.3 2.3,55 3.7,83.2 29.2,579.7 142.2,1467.5 515.5,2404.7 943.7,2369.5 3096.9,3939.1 6226.7,4539.1 l 61.1,11.7 16.5,60 c 1.1,3.9 110.5,396.3 388,978.7 256.9,539.1 713.3,1352.6 1428.7,2166.5 1263.5,1437.4 3595.8,3150.8 7531.4,3150.8 2851.8,0 5156.6,-1082.1 6665.2,-3129.2 1010.7,-1371.4 1436.7,-2846.6 1616,-3842.7 171.3,-951.3 192,-1903.7 66.1,-2660.1 m 5349.3,-574.1 c -522.1,332.2 -1133,544.1 -1815.5,629.6 -543.1,68.1 -1132.6,56.7 -1752.1,-33.8 -757.6,-110.6 -1366,-309.8 -1659.3,-417.8 91.3,364.6 145.2,795.7 156.9,1260.5 14.7,585.9 -35.3,1202 -148.6,1831.2 -183.1,1016.9 -618.3,2523.5 -1651.8,3925.9 -721.2,978.7 -1620.7,1747.9 -2673.6,2286.4 -1198.9,613.2 -2596.1,924.1 -4152.6,924.1 -1769.4,0 -3372.1,-338.2 -4763.6,-1005.1 -1114.6,-534.1 -2096.3,-1278.9 -2918,-2213.6 -730.6,-831.2 -1196.7,-1662 -1459.1,-2212.6 -224.6,-471.4 -340.9,-817.8 -382.4,-951.6 C 8893.8,19661.7 7441.8,19021.8 6334.8,18104.2 5436.7,17359.7 4763.2,16432.5 4333,15348.4 3707.5,13675.1 3850.4,12326.6 3913.2,11933.6 v -0.1 c 12.1,-75.9 21.2,-116.2 21.2,-116.2 0,-36.1 0.3,-72.1 0.91,-108 v -0.1 c 3.99,-269.1 23.49,-534.5 57.5,-795.2 v -0.1 c 11.19,-86 23.99,-171.5 38.39,-256.4 192.4,-1140.2 663.6,-2185.7 1341.21,-3063.8 11.39,-14.9 22.89,-29.7 34.49,-44.4 30.4,-38.7 61.1,-77.1 92.4,-115.1 15.2,-18.7 30.1,-36.8 46,-55.2 v -0.4 c 3.3,-4 6.6,-8 10.1,-12 2.5,-3.1 5,-6.1 7.59,-9.1 16.21,-19.3 32.61,-38.5 49.21,-57.6 4.1,-4.8 8.2,-9.6 12.4,-14.4 17,-19.6 34.1,-39.2 51.3,-58.6 1.2,-1.3 2.4,-2.7 3.7,-4.1 6,-6.8 12.2,-13.7 18.3,-20.5 2.8,-3.1 5.5,-6.2 8.4,-9.3 16.2,-18.2 32.6,-36.2 49.1,-54.2 2.4,-2.6 4.7,-5.1 7.1,-7.7 64.3,-69.9 130.1,-138.4 197.19,-205.6 C 6381.2,6503.8 6856.9,6136.2 7375.4,5834 l 0.09,-0.1 c 56.61,-32.8 113.51,-65 171.12,-96.3 335.69,-183.2 688.39,-339.2 1055,-465.4 86.89,-29.9 174.59,-58.2 263.08,-84.7 630.21,-188.8 1298.11,-290.3 1989.81,-290.3 h 20049 v 25.6 c 373.7,35.3 736.9,106.6 1086.1,210.6 217.8,64.7 430.2,142.2 636.3,231.5 2023.8,876.5 3439.7,2891.6 3439.7,5237.6 0,0 35.7,276.4 35.7,710.7 0,1181.7 -264.2,3532.5 -2230.2,4670.2"
         style="fill:#e9e7fd;fill-opacity:1;fill-rule:nonzero;stroke:none"
         id="path14" />
      <path
         d="m 31830.6,22384.6 c 357.3,0 646.9,289.6 646.9,646.8 0,357.3 -289.6,646.9 -646.9,646.9 -357.2,0 -646.8,-289.6 -646.8,-646.9 0,-357.2 289.6,-646.8 646.8,-646.8"
         style="fill:#e9e7fd;fill-opacity:1;fill-rule:nonzero;stroke:none"
         id="path16" />
      <path
         d="m 34261.8,20130.4 c 717.8,0 1299.7,581.9 1299.7,1299.7 0,717.8 -581.9,1299.7 -1299.7,1299.7 -717.8,0 -1299.7,-581.9 -1299.7,-1299.7 0,-717.8 581.9,-1299.7 1299.7,-1299.7"
         style="fill:#e9e7fd;fill-opacity:1;fill-rule:nonzero;stroke:none"
         id="path18" />
      <path
         d="m 30738,19238.7 c 246.2,0 445.8,199.6 445.8,445.9 0,246.2 -199.6,445.8 -445.8,445.8 -246.3,0 -445.9,-199.6 -445.9,-445.8 0,-246.3 199.6,-445.9 445.9,-445.9"
         style="fill:#e9e7fd;fill-opacity:1;fill-rule:nonzero;stroke:none"
         id="path20" />
      <path
         d="m 32988,19084.6 c 165.7,0 300,134.3 300,300 0,165.7 -134.3,300 -300,300 -165.7,0 -300,-134.3 -300,-300 0,-165.7 134.3,-300 300,-300"
         style="fill:#e9e7fd;fill-opacity:1;fill-rule:nonzero;stroke:none"
         id="path22" />
      <path
         d="m 23357.6,20776.3 v -8400 c 0,-386.6 -313.4,-700 -700,-700 H 8007.63 c -386.6,0 -700,313.4 -700,700 v 8400 c 0,386.6 313.4,700 700,700 H 22657.6 c 386.6,0 700,-313.4 700,-700"
         style="fill:#ffffff;fill-opacity:1;fill-rule:nonzero;stroke:none"
         id="path24" />
      <path
         d="m 22578.1,18593.9 v -0.1 c -11.6,-44.5 -54,-75.5 -101.4,-71.3 -24.9,2.1 -46.8,13.7 -62.5,30.9 -15.7,17.2 -25.2,40 -25.1,64.7 0,1.1 0,2.2 0,3.3 v 0.3 c 0.1,1.6 0.2,3.3 0.3,4.9 0.4,3.8 0.9,7.6 1.7,11.3 -0.8,6.1 -1.5,12 -2.1,17.7 -0.4,19.2 -1.2,38.4 -2.8,57.6 v 0.3 c -0.2,3.1 -0.5,6.3 -0.7,9.5 -0.3,3.2 -0.6,6.4 -0.9,9.6 -0.3,3.1 -0.6,6.3 -1,9.5 -0.3,3.2 -0.6,6.4 -1,9.6 -0.3,3.1 -0.7,6.3 -1.1,9.5 -0.4,3.1 -0.8,6.3 -1.3,9.5 -1.2,9.5 -2.6,19 -4.2,28.5 -1,6.3 -2.1,12.7 -3.3,19 -0.5,3.1 -1.1,6.3 -1.7,9.4 -0.6,3.2 -1.2,6.3 -1.9,9.5 -0.4,2.1 -0.8,4.3 -1.3,6.4 -0.3,1.4 -0.6,2.8 -0.9,4.2 -0.6,2.7 -1.2,5.5 -1.8,8.2 -0.6,2.9 -1.3,5.9 -2,8.8 l -0.4,2 c -2.1,8.9 -4.3,17.9 -6.7,26.8 -0.6,2.4 -1.2,4.9 -1.9,7.3 -0.3,1.3 -0.7,2.6 -1.1,3.9 -1.5,5.6 -3.1,11.2 -4.7,16.7 -5.9,20 -12.4,40 -19.5,59.7 -1.1,3 -2.2,6.1 -3.4,9.1 -4.7,12.7 -9.7,25.3 -15,37.9 -1.4,3.3 -2.8,6.6 -4.2,9.8 -1.3,3 -2.6,5.9 -3.8,8.8 -1.8,3.9 -3.5,7.8 -5.3,11.6 -0.9,2.2 -1.9,4.3 -2.9,6.4 -1,2 -2,4.1 -2.9,6.1 -3.7,7.7 -7.5,15.4 -11.3,23 -1,1.9 -2,3.8 -3,5.7 -2.4,4.8 -4.9,9.5 -7.4,14.3 -1,1.8 -2,3.6 -3,5.5 -4.2,7.7 -8.5,15.4 -13,23 -1.4,2.5 -2.8,5 -4.3,7.4 -1.5,2.6 -3.1,5.2 -4.7,7.8 -1,1.9 -2.2,3.7 -3.3,5.5 l -0.4,0.7 c -3,4.9 -6,9.7 -9.1,14.6 -2.4,3.8 -4.9,7.7 -7.4,11.5 -1.5,2.2 -2.9,4.4 -4.4,6.6 -6.9,10.4 -14,20.6 -21.3,30.7 -1.5,2.1 -3,4.2 -4.6,6.3 -5.1,7.1 -10.4,14.1 -15.8,21.1 -1.6,2.1 -3.2,4.1 -4.9,6.2 -3,3.9 -6.2,7.9 -9.4,11.8 -1.6,2 -3.2,4.1 -4.9,6 -2.2,2.7 -4.3,5.3 -6.6,7.9 -2.2,2.7 -4.4,5.3 -6.6,7.9 -1.7,2 -3.4,3.9 -5.1,5.8 -3.3,3.9 -6.6,7.7 -10,11.4 -1.7,2 -3.5,3.9 -5.2,5.8 -6,6.5 -12,13 -18.1,19.3 -1.8,1.9 -3.6,3.8 -5.4,5.6 -8.7,9 -17.5,17.7 -26.5,26.3 -1.9,1.8 -3.8,3.7 -5.8,5.4 -3.3,3.2 -6.6,6.3 -10,9.4 -4.2,3.9 -8.5,7.7 -12.8,11.5 l -0.6,0.5 c -1.6,1.4 -3.2,2.8 -4.8,4.2 -2.3,2 -4.6,4 -6.9,6 -2.2,1.9 -4.3,3.7 -6.5,5.5 -6.8,5.7 -13.6,11.3 -20.5,16.8 -1.6,1.3 -3.2,2.6 -4.9,3.9 -4.2,3.3 -8.5,6.6 -12.8,9.8 -1.6,1.3 -3.3,2.6 -5,3.9 -6.9,5.1 -13.7,10.2 -20.7,15.1 -1.8,1.3 -3.7,2.6 -5.6,3.9 -1.9,1.4 -3.8,2.7 -5.7,4 -3.5,2.4 -7,4.8 -10.5,7.2 -2.7,1.8 -5.3,3.6 -8,5.3 -3,2 -6,4 -9,5.9 -11.4,7.4 -23,14.5 -34.7,21.4 -2.8,1.6 -5.6,3.2 -8.4,4.8 -18.2,10.5 -36.6,20.4 -55.3,29.6 -5.2,2.6 -10.5,5.1 -15.7,7.6 -1.2,0.6 -2.4,1.1 -3.6,1.7 -2.3,1.1 -4.6,2.2 -6.9,3.2 -8.4,3.9 -16.8,7.6 -25.3,11.2 l -1.8,0.8 c -2.8,1.2 -5.6,2.3 -8.3,3.5 -2.6,1 -5.2,2.1 -7.8,3.2 -1.3,0.5 -2.7,1 -4,1.6 -2,0.8 -4.1,1.6 -6.1,2.4 -3,1.1 -6,2.3 -9,3.4 -3,1.2 -6,2.3 -9,3.4 -6,2.2 -12,4.4 -18.1,6.5 -9.1,3.2 -18.2,6.3 -27.3,9.1 -3.1,1 -6.1,2 -9.2,2.9 -3,1 -6.1,1.9 -9.2,2.8 -3.1,0.9 -6.1,1.8 -9.2,2.7 -3.1,0.9 -6.1,1.7 -9.2,2.5 -3.1,0.9 -6.2,1.8 -9.3,2.6 -3.1,0.8 -6.2,1.6 -9.3,2.4 -60.7,15.6 -122.7,25.5 -185.1,29.7 l -3,0.4 c -52.1,4.6 -90.7,50.6 -86.1,102.7 4.2,47.9 43.3,84.4 90,86.4 1.2,0.1 2.4,0.1 3.6,0.1 h 0.2 c 1.1,0 2.2,-0.1 3.3,-0.2 3.6,-0.2 7.1,-0.4 10.7,-0.7 1.3,-0.1 2.6,-0.2 3.9,-0.3 4.9,-0.4 9.7,-0.8 14.6,-1.2 155.6,-13.6 304.7,-56.4 443.1,-127.1 143.4,-73.4 269.1,-173.6 373.4,-297.9 104.3,-124.3 181.2,-265.5 228.5,-419.4 1.6,-5.3 3.2,-10.6 4.7,-15.8 1.2,-3.9 2.3,-7.7 3.4,-11.6 l 0.2,-0.9 c 2.4,-8.4 4.6,-16.8 6.8,-25.3 0.4,-1.7 0.9,-3.4 1.3,-5.1 0.9,-3.6 1.8,-7.2 2.7,-10.8 l 0.2,-1 c 1.2,-4.6 2.2,-9.1 3.3,-13.7 1.8,-8 3.6,-16.1 5.3,-24.2 0.6,-3.2 1.3,-6.4 1.9,-9.7 l 0.2,-0.9 c 0.7,-3.3 1.3,-6.7 2,-10.2 v -0.2 c 1.4,-7 2.6,-14 3.8,-21.1 l 0.2,-0.8 c 0.6,-3.5 1.2,-7 1.7,-10.6 0.6,-3.6 1.2,-7.2 1.7,-10.9 1.7,-10.9 3.2,-21.9 4.5,-32.8 0.5,-3.5 0.9,-7 1.3,-10.5 l 0.2,-2.1 c 0.4,-3.1 0.7,-6.2 1,-9.4 0.4,-3.6 0.8,-7.3 1.1,-11 0.3,-3.3 0.7,-6.6 0.9,-9.9 l 0.2,-2.2 c 0.2,-2.6 0.5,-5.1 0.6,-7.7 0.7,-8 1.3,-16.1 1.7,-24.2 0.2,-3.7 0.4,-7.4 0.6,-11.1 0.2,-3.3 0.3,-6.6 0.4,-9.9 0.2,-4.1 0.4,-8.1 0.5,-12.2 0.1,-3.9 0.2,-7.9 0.3,-11.8 0.1,-4.1 0.1,-8.3 0.2,-12.4 0,-1.9 0,-3.9 0,-5.8 0,-1.1 0,-2.2 0,-3.2 0,-3 0,-6 0,-9 0,-4.4 0,-8.7 -0.1,-13.2 -0.1,-4.8 -0.2,-9.6 -0.3,-14.5 -0.1,-3 -0.2,-6 -0.3,-9"
         style="fill:#d7d4fe;fill-opacity:1;fill-rule:nonzero;stroke:none"
         id="path26" />
      <path
         d="m 22093.6,17919.6 c -395.2,-395.2 -1038.2,-395.2 -1433.4,0 -395.2,395.2 -395.2,1038.2 0,1433.4 80.9,81 172.3,145.4 269.8,193.2 29.8,14.6 60.2,27.6 91.1,39.1 0,0 107.3,28.1 84.5,119.2 -22.8,91.2 -122.4,68.5 -122.4,68.5 -19.7,-6.8 -39.4,-14.1 -58.8,-22 -33.6,-13.7 -66.4,-28.7 -98.3,-45.2 -110.3,-56.7 -210.7,-130.1 -299.6,-219.1 -114.8,-114.7 -203.7,-248.6 -264.3,-397.9 -58.4,-144.1 -88,-296.3 -88,-452.5 0,-156.1 29.6,-308.4 88,-452.5 60.6,-149.2 149.5,-283.1 264.3,-397.9 114.7,-114.8 248.6,-203.6 397.9,-264.2 144.1,-58.4 296.3,-88 452.5,-88 156.1,0 308.4,29.6 452.5,88 149.2,60.6 283.1,149.4 397.9,264.2 114.8,114.8 16.1,283.5 -133.7,133.7"
         style="fill:#e9e7fd;fill-opacity:1;fill-rule:nonzero;stroke:none"
         id="path28" />
      <path
         d="m 20903.6,18765.9 c 0,22.8 -6,41.1 -18.1,54.9 -12.1,13.8 -29.1,20.7 -51.1,20.7 -21.7,0 -38.6,-6.7 -50.7,-20.1 -12,-13.4 -18.1,-31.9 -18.1,-55.5 0,-23.3 6.1,-42.1 18.1,-56.3 12.1,-14.2 29.1,-21.3 51.1,-21.3 22,0 39,7.1 50.9,21.3 11.9,14.2 17.9,33 17.9,56.3 z m 12.1,-255.5 c 0,25.5 -7.4,45.9 -22.2,61.2 -14.7,15.3 -34.6,22.9 -59.5,22.9 -24.7,0 -44.4,-7.6 -59.1,-22.7 -14.8,-15.2 -22.2,-35.6 -22.2,-61.4 0,-24.9 7.3,-45 21.8,-60.3 14.4,-15.3 34.6,-22.9 60.3,-22.9 25.2,0 45,7.3 59.4,22.1 14.3,14.7 21.5,35.1 21.5,61.1 z m 104.2,261.1 c 0,-28.4 -7.1,-53.6 -21.4,-75.6 -14.2,-22 -33.7,-39.6 -58.7,-52.7 28.4,-13.7 51,-32.5 67.6,-56.5 16.6,-24 24.9,-52.3 24.9,-84.7 0,-52 -17.7,-93.1 -53.1,-123.3 -35.4,-30.2 -83.5,-45.3 -144.4,-45.3 -60.9,0 -109.2,15.2 -144.8,45.5 -35.7,30.3 -53.5,71.3 -53.5,123.1 0,32.4 8.3,60.7 24.9,84.9 16.6,24.1 39,42.9 67.2,56.3 -24.9,13.1 -44.4,30.7 -58.5,52.7 -14.1,22 -21.2,47.2 -21.2,75.6 0,49.9 16.7,89.7 49.9,119.3 33.3,29.7 78.5,44.5 135.6,44.5 56.9,0 102,-14.7 135.4,-44.1 33.4,-29.3 50.1,-69.2 50.1,-119.7"
         style="fill:#e9e7fd;fill-opacity:1;fill-rule:nonzero;stroke:none"
         id="path30" />
      <path
         d="m 21388.8,18702.2 c 0,48.6 -6.7,84 -19.9,106.1 -13.3,22.2 -34,33.2 -62.2,33.2 -27.3,0 -47.5,-10.5 -60.5,-31.6 -13,-21 -19.9,-54 -20.8,-98.8 v -142.6 c 0,-47.8 6.6,-83.3 19.6,-106.5 13,-23.2 33.8,-34.8 62.5,-34.8 28.4,0 49,11.1 61.6,33.4 12.6,22.3 19.1,56.4 19.7,102.3 z m 116.2,-118.5 c 0,-81 -16.7,-143 -50.2,-185.9 -33.6,-42.9 -82.7,-64.4 -147.3,-64.4 -63.8,0 -112.6,21.1 -146.4,63.2 -33.8,42.1 -51.1,102.4 -51.9,181 v 107.8 c 0,81.9 16.9,143.9 50.9,186.3 33.9,42.4 82.8,63.6 146.6,63.6 63.8,0 112.7,-21 146.5,-63 33.7,-42 51,-102.2 51.8,-180.8 v -107.8"
         style="fill:#e9e7fd;fill-opacity:1;fill-rule:nonzero;stroke:none"
         id="path32" />
      <path
         d="m 21939.1,18453.7 c 0,-14.7 4.9,-27.3 14.5,-37.8 9.7,-10.5 21.8,-15.7 36.2,-15.7 32.7,0 49.1,18.1 49.1,54.3 v 30.6 c 0,16.1 -4.6,29 -13.7,38.8 -9.1,9.8 -21.2,14.7 -36.2,14.7 -15,0 -27.1,-4.9 -36.2,-14.7 -9.1,-9.8 -13.7,-23.1 -13.7,-40 z m -77.2,31.4 c 0,36.2 11.8,65.4 35.4,87.5 23.6,22.1 54.2,33.2 91.7,33.2 38.1,0 68.9,-10.9 92.4,-32.8 23.4,-21.9 35.2,-52 35.2,-90.3 v -29 c 0,-35.9 -11.6,-65 -34.6,-87.1 -23.1,-22.1 -53.8,-33.2 -92.2,-33.2 -38.6,0 -69.6,11.2 -92.9,33.4 -23.3,22.3 -35,51.8 -35,88.5 z m -129.5,-99.8 -56.8,30.6 286.1,457.8 56.7,-30.5 z m -73.3,398.3 c 0,-16.1 4.7,-29 13.9,-38.8 9.3,-9.8 21.4,-14.7 36.4,-14.7 15,0 27,5 35.8,14.9 8.9,9.9 13.3,23.2 13.3,39.8 v 29.8 c 0,16.1 -4.4,29.1 -13.3,39 -8.8,9.9 -21,14.9 -36.6,14.9 -14.7,0 -26.7,-4.9 -35.8,-14.7 -9.1,-9.8 -13.7,-23.4 -13.7,-40.8 z m -77.2,31 c 0,35.9 11.7,65.1 35,87.5 23.3,22.4 53.9,33.6 91.7,33.6 38.4,0 69.2,-11.1 92.6,-33.2 23.3,-22.1 35,-52.1 35,-89.9 v -29 c 0,-36.2 -11.7,-65.3 -35,-87.3 -23.4,-22 -54,-33 -91.8,-33 -38.1,0 -68.8,11.1 -92.3,33.2 -23.5,22.1 -35.2,52 -35.2,89.5 v 28.6"
         style="fill:#e9e7fd;fill-opacity:1;fill-rule:nonzero;stroke:none"
         id="path34" />
      <path
         d="m 15435,15341.6 v -173.2 H 9934.24 v 3673.5 h 173.16 V 15341.6 H 15435"
         style="fill:#e9e7fd;fill-opacity:1;fill-rule:nonzero;stroke:none"
         id="path36" />
      <path
         d="m 11040.2,15341.6 h -374.9 v 1569 h 374.9 v -1569"
         style="fill:#e9e7fd;fill-opacity:1;fill-rule:nonzero;stroke:none"
         id="path38" />
      <path
         d="m 11790.2,15341.6 h -375 v 2304 h 375 v -2304"
         style="fill:#e9e7fd;fill-opacity:1;fill-rule:nonzero;stroke:none"
         id="path40" />
      <path
         d="m 12540.2,15341.6 h -375 v 2739 h 375 v -2739"
         style="fill:#e9e7fd;fill-opacity:1;fill-rule:nonzero;stroke:none"
         id="path42" />
      <path
         d="m 13290.1,15341.6 h -374.9 v 1269 h 374.9 v -1269"
         style="fill:#e9e7fd;fill-opacity:1;fill-rule:nonzero;stroke:none"
         id="path44" />
      <path
         d="m 14040.1,15341.6 h -375 v 3234 h 375 v -3234"
         style="fill:#e9e7fd;fill-opacity:1;fill-rule:nonzero;stroke:none"
         id="path46" />
      <path
         d="m 8927.36,18111.5 h -503.68 v 265.3 h 503.68 v -265.3"
         style="fill:#e9e7fd;fill-opacity:1;fill-rule:nonzero;stroke:none"
         id="path48" />
      <path
         d="m 8927.36,17663.2 h -503.68 v 265.3 h 503.68 v -265.3"
         style="fill:#e9e7fd;fill-opacity:1;fill-rule:nonzero;stroke:none"
         id="path50" />
      <path
         d="m 8927.36,17214.9 h -503.68 v 265.3 h 503.68 v -265.3"
         style="fill:#e9e7fd;fill-opacity:1;fill-rule:nonzero;stroke:none"
         id="path52" />
      <path
         d="m 22430.2,16667.3 h -2778.7 v 144.2 h 2778.7 v -144.2"
         style="fill:#e9e7fd;fill-opacity:1;fill-rule:nonzero;stroke:none"
         id="path54" />
      <path
         d="m 22856.9,16667.3 h -326.7 v 144.2 h 326.7 v -144.2"
         style="fill:#e9e7fd;fill-opacity:1;fill-rule:nonzero;stroke:none"
         id="path56" />
      <path
         d="m 22856.9,16423.8 h -217.4 v 144.1 h 217.4 v -144.1"
         style="fill:#e9e7fd;fill-opacity:1;fill-rule:nonzero;stroke:none"
         id="path58" />
      <path
         d="m 22856.9,16180.2 h -687.4 v 144.2 h 687.4 v -144.2"
         style="fill:#e9e7fd;fill-opacity:1;fill-rule:nonzero;stroke:none"
         id="path60" />
      <path
         d="m 22530.2,16423.8 h -2778.7 v 144.1 h 2778.7 v -144.1"
         style="fill:#e9e7fd;fill-opacity:1;fill-rule:nonzero;stroke:none"
         id="path62" />
      <path
         d="m 22045.2,16180.2 h -2778.7 v 144.2 h 2778.7 v -144.2"
         style="fill:#e9e7fd;fill-opacity:1;fill-rule:nonzero;stroke:none"
         id="path64" />
      <path
         d="m 23357.6,20776.3 v -150 H 7307.63 v 150 c 0,386.6 313.4,700 700,700 H 22657.6 c 386.6,0 700,-313.4 700,-700"
         style="fill:#d7d4fe;fill-opacity:1;fill-rule:nonzero;stroke:none"
         id="path66" />
      <path
         d="m 23357.6,14126.3 v -1750 c 0,-386.6 -313.4,-700 -700,-700 H 8007.63 c -386.6,0 -700,313.4 -700,700 v 1750 H 23357.6"
         style="fill:#d7d4fe;fill-opacity:1;fill-rule:nonzero;stroke:none"
         id="path68" />
      <path
         d="M 19081.1,14176.3 H 7307.63 v -100 H 19081.1 v 100"
         style="fill:#5551e3;fill-opacity:1;fill-rule:nonzero;stroke:none"
         id="path70" />
      <path
         d="m 15954,12952.4 c 67.2,-38.8 67.2,-135.9 0,-174.7 l -421.4,-243.3 -421.3,-243.2 c -67.3,-38.8 -151.3,9.7 -151.3,87.4 v 486.5 486.5 c 0,77.6 84,126.2 151.3,87.3 l 421.3,-243.2 421.4,-243.3"
         style="fill:#e9e7fd;fill-opacity:1;fill-rule:nonzero;stroke:none"
         id="path72" />
      <path
         d="m 17766.4,12915.5 c 38.8,-22.4 38.8,-78.4 0,-100.8 l -185.7,-107.3 -185.8,-107.2 c -38.8,-22.4 -87.2,5.6 -87.2,50.4 v 214.5 214.4 c 0,44.8 48.4,72.8 87.2,50.4 l 185.8,-107.2 185.7,-107.2"
         style="fill:#c4c3ed;fill-opacity:1;fill-rule:nonzero;stroke:none"
         id="path74" />
      <path
         d="m 18707.5,12915.5 c 38.8,-22.4 38.8,-78.4 0,-100.8 l -185.8,-107.3 -185.7,-107.2 c -38.8,-22.4 -87.3,5.6 -87.3,50.4 v 214.5 214.4 c 0,44.8 48.5,72.8 87.3,50.4 l 185.7,-107.2 185.8,-107.2"
         style="fill:#c4c3ed;fill-opacity:1;fill-rule:nonzero;stroke:none"
         id="path76" />
      <path
         d="m 12898.9,12814.7 c -38.8,22.4 -38.8,78.4 0,100.8 l 185.7,107.2 185.7,107.2 c 38.8,22.4 87.3,-5.6 87.3,-50.4 v -214.4 -214.5 c 0,-44.8 -48.5,-72.8 -87.3,-50.4 l -185.7,107.2 -185.7,107.3"
         style="fill:#c4c3ed;fill-opacity:1;fill-rule:nonzero;stroke:none"
         id="path78" />
      <path
         d="m 11957.8,12814.7 c -38.8,22.4 -38.8,78.4 0,100.8 l 185.7,107.2 185.7,107.2 c 38.8,22.4 87.3,-5.6 87.3,-50.4 v -214.4 -214.5 c 0,-44.8 -48.5,-72.8 -87.3,-50.4 l -185.7,107.2 -185.7,107.3"
         style="fill:#c4c3ed;fill-opacity:1;fill-rule:nonzero;stroke:none"
         id="path80" />
      <path
         d="m 16573.5,17337.4 -12.5,-21.6 c 26.8,-15.5 46.5,-36.4 59.7,-60.3 13.3,-23.9 19.9,-50.8 19.9,-77.7 0,-26.9 -6.6,-53.8 -19.9,-77.6 -13.2,-23.9 -32.9,-44.8 -59.7,-60.3 l -648.7,-374.6 -648.7,-374.5 c -25.9,-14.9 -52.9,-21.6 -79.4,-21.6 -41.4,0 -81.6,16.7 -111.1,45 -29.5,28.4 -48.4,67.7 -48.5,114.6 v 749 749.1 c 0.1,46.8 19,86.2 48.5,114.6 29.5,28.3 69.7,45 111.1,45 26.5,-0.1 53.5,-6.7 79.4,-21.7 l 648.7,-374.5 648.7,-374.5 12.5,21.6 12.5,21.7 -648.7,374.5 -648.7,374.5 c -33.5,19.4 -69.5,28.4 -104.4,28.4 -54.8,-0.1 -107,-21.9 -145.7,-58.9 -38.7,-37 -63.9,-90 -63.9,-150.7 v -749.1 -749 c 0,-60.8 25.2,-113.7 63.9,-150.7 38.7,-37.1 90.9,-58.9 145.7,-58.9 34.9,0 70.9,9 104.4,28.3 l 648.7,374.5 648.7,374.6 c 34.6,19.9 61,47.8 78.5,79.3 17.4,31.6 26.1,66.8 26.1,101.9 0,35.2 -8.7,70.4 -26.1,101.9 -17.5,31.6 -43.9,59.4 -78.5,79.4 l -12.5,-21.7"
         style="fill:#e9e7fd;fill-opacity:1;fill-rule:nonzero;stroke:none"
         id="path82" />
      <path
         d="m 8423.68,21051.3 c 0,-95.6 -77.53,-173.1 -173.16,-173.1 -95.63,0 -173.16,77.5 -173.16,173.1 0,95.6 77.53,173.2 173.16,173.2 95.63,0 173.16,-77.6 173.16,-173.2"
         style="fill:#e9e7fd;fill-opacity:1;fill-rule:nonzero;stroke:none"
         id="path84" />
      <path
         d="m 9100.52,21051.3 c 0,-95.6 -77.53,-173.1 -173.16,-173.1 -95.63,0 -173.15,77.5 -173.15,173.1 0,95.6 77.52,173.2 173.15,173.2 95.63,0 173.16,-77.6 173.16,-173.2"
         style="fill:#e9e7fd;fill-opacity:1;fill-rule:nonzero;stroke:none"
         id="path86" />
      <path
         d="m 9777.36,21051.3 c 0,-95.6 -77.52,-173.1 -173.15,-173.1 -95.63,0 -173.16,77.5 -173.16,173.1 0,95.6 77.53,173.2 173.16,173.2 95.63,0 173.15,-77.6 173.15,-173.2"
         style="fill:#5551e3;fill-opacity:1;fill-rule:nonzero;stroke:none"
         id="path88" />
      <path
         d="m 32625.9,5364.9 c -206.1,-89.3 -418.5,-166.8 -636.3,-231.5 -1431.9,-106.3 -3677.7,-234.1 -6202.6,-234.1 -4324.6,0 -7830.4,374.8 -7830.4,374.8 0,0 3505.8,374.8 7830.4,374.8 2938.9,0 5499.6,-173.1 6838.9,-284"
         style="fill:#c4c3ed;fill-opacity:1;fill-rule:nonzero;stroke:none"
         id="path90" />
      <path
         d="m 29255,5220.3 h 2734.5 c 194.8,76 329.7,253.7 345.4,455.5 17.9,229.8 -121.7,450.8 -345.4,539.8 -911.5,0 -1823,0 -2734.5,0 238.8,-75.5 393.1,-302.7 374.2,-539.8 -16.7,-209 -165.4,-391.1 -374.2,-455.5"
         style="fill:#fed981;fill-opacity:1;fill-rule:nonzero;stroke:none"
         id="path92" />
      <path
         d="m 27795.6,5220.3 h 1522.7 c 194.8,76 329.7,253.7 345.4,455.5 18,229.8 -121.7,450.8 -345.4,539.8 -911.5,0 -611.2,0 -1522.7,0 26.8,-24.8 254.5,-242.8 220.3,-568.5 -25.4,-241.7 -178.9,-389.4 -220.3,-426.8"
         style="fill:#ffffff;fill-opacity:1;fill-rule:nonzero;stroke:none"
         id="path94" />
      <path
         d="m 27842.3,6166.6 c 0,0 1401.2,-14.5 1412.7,-946.3 0,0 483.6,0 483.6,497.6 0,497.7 -372.9,497.7 -372.9,497.7 l -1523.4,-49"
         style="fill:#d7d4fe;fill-opacity:1;fill-rule:nonzero;stroke:none"
         id="path96" />
      <path
         d="m 29365.7,6166.6 h -1570.1 v 49 h 1570.1 v -49"
         style="fill:#5551e3;fill-opacity:1;fill-rule:nonzero;stroke:none"
         id="path98" />
      <path
         d="m 29365.7,5220.3 h -1570.1 v 49 h 1570.1 v -49"
         style="fill:#5551e3;fill-opacity:1;fill-rule:nonzero;stroke:none"
         id="path100" />
      <path
         d="m 29629.2,5675.8 c 18.9,237.1 -135.4,464.3 -374.2,539.8 67.2,0 134.3,0 201.5,0 238.8,-75.5 393.1,-302.7 374.2,-539.8 -16.7,-209 -165.4,-391.1 -374.2,-455.5 H 29255 c 208.8,64.4 357.5,246.5 374.2,455.5"
         style="fill:#3483ff;fill-opacity:1;fill-rule:nonzero;stroke:none"
         id="path102" />
      <path
         d="m 31789.2,5675.8 c 18.9,237.1 -135.4,464.3 -374.2,539.8 67.1,0 134.3,0 201.5,0 238.8,-75.5 393.1,-302.7 374.2,-539.8 -16.7,-209 -165.4,-391.1 -374.2,-455.5 H 31415 c 208.8,64.4 357.5,246.5 374.2,455.5"
         style="fill:#3483ff;fill-opacity:1;fill-rule:nonzero;stroke:none"
         id="path104" />
      <path
         d="m 30040.9,7029.3 c -2.3,0.5 -4.6,1.3 -6.8,2.4 -15.1,7.6 -21.3,26 -13.7,41.2 2,4.1 209.2,417.1 560.3,949.3 324.1,491.3 841,1188.1 1462.5,1717.2 12.9,11 32.3,9.4 43.3,-3.5 11,-12.9 9.5,-32.3 -3.5,-43.3 -615.7,-524.2 -1128.6,-1215.7 -1450.5,-1703.5 -349.2,-529.2 -555.1,-939.5 -557.1,-943.6 -6.5,-13 -20.9,-19.4 -34.5,-16.2"
         style="fill:#d7d4fe;fill-opacity:1;fill-rule:nonzero;stroke:none"
         id="path106" />
      <path
         d="m 30388.9,7662.6 c 0,0 1110.5,624.6 1126.9,231.2 16.5,-393.5 -1126.9,-231.2 -1126.9,-231.2"
         style="fill:#d7d4fe;fill-opacity:1;fill-rule:nonzero;stroke:none"
         id="path108" />
      <path
         d="m 30388.9,7662.6 c 0,0 311.7,1055.7 -123,888.4 -434.8,-167.4 123,-888.4 123,-888.4"
         style="fill:#d7d4fe;fill-opacity:1;fill-rule:nonzero;stroke:none"
         id="path110" />
      <path
         d="m 30854.5,8356 c 0,0 711.9,372.9 784.7,18.7 72.8,-354.3 -784.7,-18.7 -784.7,-18.7"
         style="fill:#d7d4fe;fill-opacity:1;fill-rule:nonzero;stroke:none"
         id="path112" />
      <path
         d="m 30854.5,8356 c 0,0 8.7,773.6 -243.8,658.1 -252.5,-115.4 243.8,-658.1 243.8,-658.1"
         style="fill:#d7d4fe;fill-opacity:1;fill-rule:nonzero;stroke:none"
         id="path114" />
      <path
         d="m 31653.3,9385.5 c 0,0 563.7,213.3 547,-37.4 -16.7,-250.8 -547,37.4 -547,37.4"
         style="fill:#d7d4fe;fill-opacity:1;fill-rule:nonzero;stroke:none"
         id="path116" />
      <path
         d="m 31653.3,9385.5 c 0,0 173.3,539.9 -89.2,467.1 -262.5,-72.9 89.2,-467.1 89.2,-467.1"
         style="fill:#d7d4fe;fill-opacity:1;fill-rule:nonzero;stroke:none"
         id="path118" />
      <path
         d="m 31938.5,9592.3 c 0,0 123.1,476.8 -48.8,413.1 -171.8,-63.7 48.8,-413.1 48.8,-413.1"
         style="fill:#d7d4fe;fill-opacity:1;fill-rule:nonzero;stroke:none"
         id="path120" />
      <path
         d="m 31938.5,9592.3 c 0,0 358.1,108.8 372.1,-12.2 14,-121 -372.1,12.2 -372.1,12.2"
         style="fill:#d7d4fe;fill-opacity:1;fill-rule:nonzero;stroke:none"
         id="path122" />
      <path
         d="m 32043.7,9706.8 c 0,0 295.4,416.8 404.3,220 109,-196.8 -404.3,-220 -404.3,-220"
         style="fill:#d7d4fe;fill-opacity:1;fill-rule:nonzero;stroke:none"
         id="path124" />
      <path
         d="m 31195.7,8812.9 c 0,0 649.6,159.8 644.6,-58.3 -5,-218.1 -644.6,58.3 -644.6,58.3"
         style="fill:#d7d4fe;fill-opacity:1;fill-rule:nonzero;stroke:none"
         id="path126" />
      <path
         d="m 31195.7,8812.9 c 0,0 46,642 -161.1,514.8 -207.2,-127.2 161.1,-514.8 161.1,-514.8"
         style="fill:#d7d4fe;fill-opacity:1;fill-rule:nonzero;stroke:none"
         id="path128" />
      <path
         d="m 31484,9149.7 c 0,0 519.3,70.8 477.3,-110.6 -42.1,-181.4 -477.3,110.6 -477.3,110.6"
         style="fill:#d7d4fe;fill-opacity:1;fill-rule:nonzero;stroke:none"
         id="path130" />
      <path
         d="m 31484,9149.7 c 0,0 -25.2,464.1 -164.2,378.4 -139,-85.8 164.2,-378.4 164.2,-378.4"
         style="fill:#d7d4fe;fill-opacity:1;fill-rule:nonzero;stroke:none"
         id="path132" />
      <path
         d="m 30107.3,7042.2 c -3.8,-0.9 -7.7,-1.4 -11.7,-1.4 -27.7,0.1 -50,22.5 -50,50.1 0,7.4 1.7,759.2 126.3,1789 115,950.9 361.4,2340.8 881.9,3562.5 10.9,25.4 40.3,37.2 65.6,26.4 25.4,-10.8 37.3,-40.2 26.4,-65.6 -515.7,-1210.4 -760.2,-2589.9 -874.5,-3533.9 -124,-1024.1 -125.7,-1771 -125.7,-1778.5 0,-23.5 -16.4,-43.3 -38.3,-48.6"
         style="fill:#d7d4fe;fill-opacity:1;fill-rule:nonzero;stroke:none"
         id="path134" />
      <path
         d="m 30153.8,8217 c 0,0 1163.1,1716.1 1472.8,1155.2 C 31936.4,8811.3 30153.8,8217 30153.8,8217"
         style="fill:#d7d4fe;fill-opacity:1;fill-rule:nonzero;stroke:none"
         id="path136" />
      <path
         d="m 30153.8,8217 c 0,0 -313,1763.6 -824.4,1204.1 C 28818,8861.6 30153.8,8217 30153.8,8217"
         style="fill:#d7d4fe;fill-opacity:1;fill-rule:nonzero;stroke:none"
         id="path138" />
      <path
         d="m 30328,9564.8 c 0,0 765.6,1060 1129,597.2 363.3,-462.9 -1129,-597.2 -1129,-597.2"
         style="fill:#d7d4fe;fill-opacity:1;fill-rule:nonzero;stroke:none"
         id="path140" />
      <path
         d="m 30328,9564.8 c 0,0 -549.1,1132.6 -832.9,781.1 -283.8,-351.4 832.9,-781.1 832.9,-781.1"
         style="fill:#d7d4fe;fill-opacity:1;fill-rule:nonzero;stroke:none"
         id="path142" />
      <path
         d="m 30743.2,11644 c 0,0 665.8,720 823.7,342.8 157.8,-377.2 -823.7,-342.8 -823.7,-342.8"
         style="fill:#d7d4fe;fill-opacity:1;fill-rule:nonzero;stroke:none"
         id="path144" />
      <path
         d="m 30743.2,11644 c 0,0 -139.8,911.9 -469.1,615.2 -329.2,-296.7 469.1,-615.2 469.1,-615.2"
         style="fill:#d7d4fe;fill-opacity:1;fill-rule:nonzero;stroke:none"
         id="path146" />
      <path
         d="m 31008.3,12152.1 c 0,0 -167.1,783.7 -371.1,566.1 -203.9,-217.5 371.1,-566.1 371.1,-566.1"
         style="fill:#d7d4fe;fill-opacity:1;fill-rule:nonzero;stroke:none"
         id="path148" />
      <path
         d="m 31008.3,12152.1 c 0,0 442.2,418.6 550.5,252.6 108.3,-166 -550.5,-252.6 -550.5,-252.6"
         style="fill:#d7d4fe;fill-opacity:1;fill-rule:nonzero;stroke:none"
         id="path150" />
      <path
         d="m 31078.2,12395.2 c 0,0 127.3,821.4 428.9,614.1 301.6,-207.3 -428.9,-614.1 -428.9,-614.1"
         style="fill:#d7d4fe;fill-opacity:1;fill-rule:nonzero;stroke:none"
         id="path152" />
      <path
         d="m 30492.8,10477.9 c 0,0 829.8,704.4 981,383.3 151.1,-321.2 -981,-383.3 -981,-383.3"
         style="fill:#d7d4fe;fill-opacity:1;fill-rule:nonzero;stroke:none"
         id="path154" />
      <path
         d="m 30492.8,10477.9 c 0,0 -399.2,968.1 -608.4,632.4 -209.3,-335.7 608.4,-632.4 608.4,-632.4"
         style="fill:#d7d4fe;fill-opacity:1;fill-rule:nonzero;stroke:none"
         id="path156" />
      <path
         d="m 30667.9,11177.7 c 0,0 704.8,480.3 775.3,185.6 70.6,-294.7 -775.3,-185.6 -775.3,-185.6"
         style="fill:#d7d4fe;fill-opacity:1;fill-rule:nonzero;stroke:none"
         id="path158" />
      <path
         d="m 30667.9,11177.7 c 0,0 -373.7,657.4 -513.7,431.5 -140.1,-225.8 513.7,-431.5 513.7,-431.5"
         style="fill:#d7d4fe;fill-opacity:1;fill-rule:nonzero;stroke:none"
         id="path160" />
      <path
         d="m 29998.8,7073.2 c -1.4,3.6 -140.8,366.8 -530.2,934.1 C 29109.1,8531 28457,9340.7 27392.1,10224 l 63.8,76.9 c 1075.8,-892.3 1734.6,-1711.2 2097.9,-2241.1 395,-576.2 532.9,-936.2 538.6,-951.3 l -93.6,-35.3"
         style="fill:#d7d4fe;fill-opacity:1;fill-rule:nonzero;stroke:none"
         id="path162" />
      <path
         d="m 29709.3,7729.3 c 0,0 -1786.9,537.4 -1849.1,-61.5 -62.3,-598.9 1849.1,61.5 1849.1,61.5"
         style="fill:#d7d4fe;fill-opacity:1;fill-rule:nonzero;stroke:none"
         id="path164" />
      <path
         d="m 29709.3,7729.3 c 0,0 -138.6,1508.8 462.6,1150.6 601.2,-358.3 -462.6,-1150.6 -462.6,-1150.6"
         style="fill:#d7d4fe;fill-opacity:1;fill-rule:nonzero;stroke:none"
         id="path166" />
      <path
         d="m 29191.7,8468.9 c 0,0 -1249.3,362.5 -1241.5,-36.9 7.7,-399.3 1241.5,36.9 1241.5,36.9"
         style="fill:#d7d4fe;fill-opacity:1;fill-rule:nonzero;stroke:none"
         id="path168" />
      <path
         d="m 29191.7,8468.9 c 0,0 -128.6,1134.8 307.6,897.5 436.1,-237.2 -307.6,-897.5 -307.6,-897.5"
         style="fill:#d7d4fe;fill-opacity:1;fill-rule:nonzero;stroke:none"
         id="path170" />
      <path
         d="m 28606.1,9152.6 c 0,0 -907.2,311.6 -824.3,-34.9 83,-346.4 824.3,34.9 824.3,34.9"
         style="fill:#d7d4fe;fill-opacity:1;fill-rule:nonzero;stroke:none"
         id="path172" />
      <path
         d="m 28606.1,9152.6 c 0,0 -106.8,785.4 263.5,661.3 370.3,-124 -263.5,-661.3 -263.5,-661.3"
         style="fill:#d7d4fe;fill-opacity:1;fill-rule:nonzero;stroke:none"
         id="path174" />
      <path
         d="m 28058.1,9702.5 c 0,0 -759.7,251.7 -691.4,-33.8 68.4,-285.5 691.4,33.8 691.4,33.8"
         style="fill:#d7d4fe;fill-opacity:1;fill-rule:nonzero;stroke:none"
         id="path176" />
      <path
         d="m 28058.1,9702.5 c 0,0 -184.3,698.9 166.3,645.6 350.6,-53.3 -166.3,-645.6 -166.3,-645.6"
         style="fill:#d7d4fe;fill-opacity:1;fill-rule:nonzero;stroke:none"
         id="path178" />
      <path
         d="m 27714.1,10056.1 c 0,0 -575.3,678.9 -747,365.6 -171.8,-313.4 747,-365.6 747,-365.6"
         style="fill:#d7d4fe;fill-opacity:1;fill-rule:nonzero;stroke:none"
         id="path180" />
      <path
         d="m 30299.8,6220.3 h -2047.5 c -194.8,76 -329.7,253.8 -345.4,455.6 -17.9,229.7 121.8,450.8 345.4,539.7 911.5,0 1136,0 2047.5,0 -238.8,-75.4 -393.1,-302.7 -374.2,-539.7 16.6,-209.1 165.3,-391.2 374.2,-455.6"
         style="fill:#5551e3;fill-opacity:1;fill-rule:nonzero;stroke:none"
         id="path182" />
      <path
         d="m 31759.2,6220.3 h -1522.8 c -194.7,76 -329.6,253.8 -345.4,455.6 -17.9,229.7 121.8,450.8 345.4,539.7 911.5,0 611.2,0 1522.8,0 -26.8,-24.8 -254.5,-242.8 -220.3,-568.5 25.4,-241.6 178.8,-389.3 220.3,-426.8"
         style="fill:#ffffff;fill-opacity:1;fill-rule:nonzero;stroke:none"
         id="path184" />
      <path
         d="m 31712.5,7166.6 c 0,0 -1401.2,-14.5 -1412.7,-946.3 0,0 -483.6,0 -483.6,497.7 0,497.6 372.9,497.6 372.9,497.6 l 1523.4,-49"
         style="fill:#d7d4fe;fill-opacity:1;fill-rule:nonzero;stroke:none"
         id="path186" />
      <path
         d="m 30189.1,7166.6 h 1570.1 v 49 h -1570.1 v -49"
         style="fill:#5551e3;fill-opacity:1;fill-rule:nonzero;stroke:none"
         id="path188" />
      <path
         d="m 30189.1,6220.3 h 1570.1 v 49 h -1570.1 v -49"
         style="fill:#5551e3;fill-opacity:1;fill-rule:nonzero;stroke:none"
         id="path190" />
      <path
         d="m 29925.6,6675.9 c -18.9,237 135.4,464.3 374.2,539.7 -67.2,0 -134.4,0 -201.5,0 -238.8,-75.4 -393.1,-302.7 -374.2,-539.7 16.7,-209.1 165.4,-391.2 374.2,-455.6 h 201.5 c -208.9,64.4 -357.6,246.5 -374.2,455.6"
         style="fill:#3483ff;fill-opacity:1;fill-rule:nonzero;stroke:none"
         id="path192" />
      <path
         d="m 28353.7,6675.9 c -19,237 135.3,464.3 374.1,539.7 -67.1,0 -34.3,0 -101.4,0 -238.8,-75.4 -383.1,-302.7 -364.2,-539.7 16.6,-209.1 155.3,-391.2 364.2,-455.6 h 101.4 c -208.8,64.4 -357.5,246.5 -374.1,455.6"
         style="fill:#3483ff;fill-opacity:1;fill-rule:nonzero;stroke:none"
         id="path194" />
      <path
         d="m 24466.4,12874.2 187.9,-1574.2 h -1367.8 l 138.4,1574.2 h 1041.5"
         style="fill:#ffc596;fill-opacity:1;fill-rule:nonzero;stroke:none"
         id="path196" />
      <path
         d="m 24473.9,12612.7 180.4,-1312.7 c -41.7,-4.7 -1367.8,0 -1367.8,0 0,0 74.9,718.3 255.6,808.9 72.2,6.7 113,-302.7 388.5,-302.7 275.4,0 394.9,194.3 387.6,242.7 -32.2,213.3 25.5,213.7 -146.5,203.8 -749.2,25.6 -739.3,360 -739.3,360 h 1041.5"
         style="fill:#f9a985;fill-opacity:1;fill-rule:nonzero;stroke:none"
         id="path198" />
      <path
         d="m 24806.7,13844.6 c 0,0 312.1,83.2 335.5,-158.6 23.4,-241.8 -313,-551.3 -341,-637.9 l -0.7,-2.3 c -8.5,-26.3 -18.2,-52.1 -29.1,-77.3 -45,-98.6 -114,-185.2 -162.8,-240.2 -87.7,-92.4 -159.9,-148.3 -183.2,-162.5 v -1.7 c -138.4,-87.4 -302.3,-138 -478.1,-138 -117.7,0 -230.1,22.7 -333.2,64 0,0 -47.8,15.5 -115.8,55.1 -275.2,180.6 -405.4,387 -434.5,745.4 -2.1,23.7 -3.1,47.6 -3.1,71.8 v 241.9 c 0.9,0.1 2,0.2 2.9,0.3 807.8,76.4 1196.7,1017.5 1196.7,1017.5 -21.7,-266.9 -26.9,-492.9 214.6,-745 148.5,-152.1 331.8,-32.5 331.8,-32.5"
         style="fill:#ffc596;fill-opacity:1;fill-rule:nonzero;stroke:none"
         id="path200" />
      <path
         d="m 23911.5,13432.8 v -360.3 l -96.2,105.3 z"
         style="fill:#f9a985;fill-opacity:1;fill-rule:nonzero;stroke:none"
         id="path202" />
      <path
         d="m 24254,12904.4 c 0,0 -11.3,-23.6 -36.9,-54.2 -47.1,-55.9 -142.5,-135.3 -305.6,-135.3 -163.1,0 -258.4,79.4 -305.5,135.3 -25.6,30.6 -36.9,54.2 -36.9,54.2 95,-18.8 213.8,-34.2 350.6,-33.6 129.7,0.6 242.8,15.5 334.3,33.6"
         style="fill:#153b63;fill-opacity:1;fill-rule:nonzero;stroke:none"
         id="path204" />
      <path
         d="m 24254,12904.4 c 0,0 -11.3,-23.6 -36.9,-54.2 -70.2,-22.3 -172.5,-46.4 -297.4,-47.4 -132.9,-1.1 -241.2,24.4 -313.7,47.4 l -36.9,54.2 c 95,-18.8 213.8,-34.2 350.6,-33.6 129.7,0.6 242.8,15.5 334.3,33.6"
         style="fill:#fefefe;fill-opacity:1;fill-rule:nonzero;stroke:none"
         id="path206" />
      <path
         d="m 24877.6,13370.6 c -5.2,0 -10.4,1.4 -15.1,4.5 -150.9,98.4 -128.2,255 -95.1,324.1 6.6,13.9 23.2,19.7 37.1,13.1 13.8,-6.6 19.6,-23.2 13,-37 -3,-6.5 -72,-157.6 75.3,-253.7 12.9,-8.4 16.5,-25.6 8.1,-38.4 -5.3,-8.2 -14.2,-12.6 -23.3,-12.6"
         style="fill:#f9a985;fill-opacity:1;fill-rule:nonzero;stroke:none"
         id="path208" />
      <path
         d="m 23060.7,13362.4 c 571.3,-7.3 886.6,470 1177.9,992.8 0,0 -1305.1,-16.3 -1177.9,-992.8"
         style="fill:#f9a985;fill-opacity:1;fill-rule:nonzero;stroke:none"
         id="path210" />
      <path
         d="m 24608.6,12728.3 c 48.8,55 117.8,141.6 162.8,240.2 -37,-86 -87.2,-165.1 -147.9,-234.7 -13.5,-15.5 -27.5,-30.4 -42,-44.9 -47.1,-47.2 -99.4,-89 -156.1,-124.8 v 1.7 c 23.3,14.2 95.5,70.1 183.2,162.5"
         style="fill:#ffc596;fill-opacity:1;fill-rule:nonzero;stroke:none"
         id="path212" />
      <path
         d="m 24844.3,14674.2 v -960 c -10.1,196.5 -88.9,294.8 -369.4,162.9 -241.5,252.1 -236.3,478.1 -214.6,745 0,0 -388.9,-941.1 -1196.7,-1017.5 -0.9,-0.1 -2,-0.2 -2.9,-0.3 v -241.9 c 0,-24.2 1,-48.1 3.1,-71.8 29.1,-358.4 159.3,-564.8 434.5,-745.4 -156.8,91.2 -420.5,310.4 -447.8,761.2 -0.2,5.6 -0.2,11.1 -0.2,16.7 v 1351.1 h 1794"
         style="fill:#ffc596;fill-opacity:1;fill-rule:nonzero;stroke:none"
         id="path214" />
      <path
         d="m 25325.2,13501.8 c 0,0 -9.4,-96.3 -26.3,-249.1 -38.5,-345 -116.1,-977.9 -214.4,-1440.1 -19.2,-90.5 -39.2,-174.6 -59.9,-248.5 -172.9,-618.7 -615.6,-241.9 -615.6,-241.9 207.8,203.5 245.3,393.4 6.4,488.9 0,0 2.6,201.7 4.4,331.9 l 5.6,421.1 v 1.7 l 0.7,0.5 c 3.5,2 8.2,5.1 13.6,9.2 1.2,0.7 2.4,1.7 3.7,2.7 3,2 6.3,4.5 9.7,7.2 1.1,0.8 2.1,1.5 3.2,2.5 1,0.8 2.2,1.8 3.3,2.6 1.3,1 2.5,2 3.9,2.9 2.3,1.8 4.7,3.7 6.9,5.8 1.7,1.3 3.5,2.6 5.3,4.2 3.5,2.9 7.3,6 11.3,9.3 4.2,3.6 8.7,7.4 13.2,11.5 1.7,1.3 3.4,2.7 4.9,4.3 2.2,1.8 4.2,3.6 6.5,5.6 6.5,5.8 13.4,11.9 20.3,18.5 l 0.7,0.6 c 2.1,1.9 4.1,3.9 6.3,5.8 l 1.2,1.1 c 1.8,1.6 3.5,3.3 5.3,5 16.1,15.1 33,31.9 50.9,50.3 4.1,4.1 8.1,8.5 12.2,12.9 48.9,55 117.9,141.7 163,240.2 11.5,25.1 21.4,51 29,77.3 v 0.4 c 1.7,8.6 21.4,131 22.8,139.3 l 0.2,0.5 c 28,86.6 190.4,113.6 139.2,423.7 -28.8,105.3 -86.3,187 -118.5,192.8 -3.1,0.6 -5.6,1 -7.6,1.3 h -3.8 c -18.9,0.4 -69.9,-2.4 -114.4,-39.8 -68.8,-57.4 -132.8,-472.5 -132,-481 -241.6,252.2 -369.6,805.4 -347.8,1072.2 0,0 -1.1,-2 -3.3,-5.8 -37.4,-65 -395.9,-652.4 -1133.9,-740.6 -4.3,-0.5 -8.8,-1.1 -13.2,-1.5 -8.1,-1 -16.4,-1.8 -24.6,-2.7 -1,-0.1 -2,-0.2 -2.9,-0.4 v -241.8 c 0,-24.2 1.1,-48.1 3.1,-71.8 0.4,-5.4 0.8,-10.8 1.4,-16.1 0.4,-5.4 1,-10.8 1.5,-16 0.6,-5.8 1.2,-11.7 1.9,-17.4 0.7,-6.8 1.6,-13.8 2.4,-20.5 0.6,-5.5 1.5,-11 2.2,-16.5 0.2,-1.3 0.3,-2.5 0.5,-3.8 0.3,-2.2 0.7,-4.4 1,-6.6 1.4,-9.1 2.7,-17.9 4.2,-26.8 1.1,-6.3 2.2,-12.6 3.3,-18.8 1.3,-6.5 2.5,-12.9 3.7,-19.4 1.3,-6.3 2.6,-12.8 4.1,-19.1 0.9,-4.5 2,-9.2 3.1,-13.8 1.1,-4.5 2.2,-9.1 3.2,-13.7 1.1,-4.6 2.3,-9.1 3.4,-13.7 0.4,-0.9 0.6,-1.9 0.8,-2.8 0.9,-3.5 2,-7 2.9,-10.5 1.1,-4.3 2.4,-8.7 3.8,-12.9 1.1,-4.5 2.5,-8.8 3.8,-13.1 1.3,-4.4 2.6,-8.6 4,-12.8 v -0.2 l 0.7,-2 c 1.2,-3.7 2.4,-7.1 3.6,-10.6 1.5,-4.7 3.1,-9.4 4.8,-14.1 1.5,-4 3,-8.1 4.6,-12.2 1,-2.9 2.1,-5.8 3.2,-8.8 1.5,-3.7 3,-7.4 4.6,-11.1 0.7,-2 1.4,-3.8 2.1,-5.6 l 0.6,-1.2 c 2.4,-6.1 5.1,-11.9 7.6,-17.9 1.8,-4 3.7,-8 5.5,-12 1.2,-2.7 2.5,-5.5 4,-8.1 1,-2.6 2.2,-5.2 3.7,-7.7 3,-6.4 6,-12.5 9.4,-18.6 4,-8.1 8.5,-15.9 12.8,-23.7 2.3,-3.9 4.5,-7.7 6.9,-11.5 2,-3.6 4.2,-7.3 6.4,-10.8 2,-3.1 3.9,-6.3 5.8,-9.4 4.9,-7.8 10.1,-15.5 15.5,-23.2 2.3,-3.6 4.8,-7.1 7.4,-10.7 2.4,-3.3 5,-6.9 7.6,-10.4 12.8,-17.3 26.5,-34.2 40.9,-50.7 2.9,-3.3 5.8,-6.6 8.8,-9.8 2.9,-3.4 5.9,-6.6 9,-9.9 4.2,-4.4 8.4,-9 12.9,-13.4 3.2,-3.5 6.6,-6.9 9.9,-10.2 2,-1.9 4,-3.9 5.9,-5.8 3.6,-3.5 7.2,-7 10.8,-10.4 4.6,-4.4 9.3,-8.7 14,-12.9 9.4,-8.6 19.2,-17.2 29,-25.4 10,-8.4 20.3,-16.8 30.8,-25 7.2,-5.8 14.5,-11.5 22,-17.1 15.2,-11.3 30.8,-22.4 46.9,-33.5 8.4,-5.7 17,-11.5 25.7,-17.3 2.1,-1.4 4.2,-2.7 6.2,-4 h 0.1 c 12.2,-8 24.5,-15.9 47.1,-27.3 v -1222.5 c 0,0 -278.1,-366.3 -643.1,-785.4 0,0 -370.3,-349.2 -612.2,-454.6 -320.3,-361 -2158.7,-178.1 -1301.7,1233.1 221.4,481.8 695.9,884.6 1305.2,1481.9 402.5,456.5 424.2,1502.2 637.4,1855.9 542.1,686.4 1637.3,483.2 2087.2,0 383.9,-412.4 315.8,-1006.2 300.6,-1120.4"
         style="fill:#262b66;fill-opacity:1;fill-rule:nonzero;stroke:none"
         id="path216" />
      <path
         d="m 22168.1,7238.6 5,-24.7 H 21842 c 0,0 -100.1,180.4 -231.2,430.2 -248.7,473.8 -608.9,1196.9 -608.9,1411.1 115.7,418.4 268.4,782 430.7,1090.8 572.8,504 664.6,-273.2 631,-365.5 -57.2,-157.5 -114.4,-314.9 -171.7,-472.3 v -0.1 c -30.6,-84.3 -61.3,-168.6 -91.9,-252.9 l 251.8,-1242.3 c 1.6,0.4 3.1,0.9 4.7,1.3 l 116.6,-575.6 h -5"
         style="fill:#ffc596;fill-opacity:1;fill-rule:nonzero;stroke:none"
         id="path218" />
      <path
         d="m 21394.9,9533.5 c 0,0 -298.6,-303.5 -249.3,-523.5 35.3,-157.7 696.4,-1796.1 696.4,-1796.1 0,0 -100.1,180.4 -231.2,430.2 -248.7,473.8 -608.9,1196.9 -608.9,1411.1 115.7,418.4 268.4,782 430.7,1090.8 572.8,504 664.6,-273.2 631,-365.5 -57.2,-157.5 -114.4,-314.9 -171.7,-472.3 v -0.1 c 0,0 -316.8,80.7 -497,225.4"
         style="fill:#f9a985;fill-opacity:1;fill-rule:nonzero;stroke:none"
         id="path220" />
      <path
         d="m 26993.6,9055.2 c 0,-214.2 -360.2,-937.3 -608.9,-1411.1 -131,-249.8 -231.1,-430.2 -231.1,-430.2 h -331.2 l 5,24.7 h -5 l 116.7,575.6 c 1.6,-0.4 3.1,-0.9 4.7,-1.3 l 251.7,1242.3 c -19.6,54.1 -39.3,108.1 -58.9,162.1 -8.1,22.2 -16.2,44.5 -24.3,66.7 -57.4,158 -114.9,316.1 -172.3,474.2 -36.3,99.8 194.9,766.8 732.3,232 113.8,-273.4 224.5,-585 321.3,-935"
         style="fill:#ffc596;fill-opacity:1;fill-rule:nonzero;stroke:none"
         id="path222" />
      <path
         d="m 26993.6,9055.2 c 0,-214.2 -360.2,-937.3 -608.9,-1411.1 -131,-249.8 -231.1,-430.2 -231.1,-430.2 0,0 838.3,1809.1 761,1879.4 -73,207.3 -189.3,440.3 -189.3,440.3 -63.7,-110.3 -187.1,-246.9 -588.7,-316.3 -8.1,22.2 -139.2,382.8 -196.6,540.9 -36.3,99.8 194.9,766.8 732.3,232 113.8,-273.4 224.5,-585 321.3,-935"
         style="fill:#f9a985;fill-opacity:1;fill-rule:nonzero;stroke:none"
         id="path224" />
      <path
         d="m 26914.6,9913.5 c 0,0 -522.8,-577.2 -1071.2,-356.1 l -1.4,1.9 c -46.2,61.1 -96.8,136.6 -148.5,222.5 l -128.7,-684.8 -31.5,-719.9 -67.9,-1552.2 h -2930.1 l -62.9,1583.2 -27.4,688.9 -125.9,657.2 -3.1,16.1 c -49.7,-82 -98.4,-154.2 -142.9,-212.9 -548.4,-221.1 -1071.2,356.1 -1071.2,356.1 0,0 1011.2,1536.5 1466.3,1783.2 263.8,123.7 550.4,218.3 739.6,242.4 8.2,1 16.3,2 24.4,2.9 65,7.7 126.8,12.3 185.1,13.2 140.4,-195.1 256.9,-282.1 352.1,-318.7 26.3,-10.2 51.1,-16.5 74.2,-20.1 h 0.1 c 20.1,-3.2 38.9,-4.4 56.6,-4.4 288.5,0 463.5,343.2 463.5,343.2 l 24,-2.7 c 44.7,-5.3 97.7,-13 156.2,-22.7 24.9,-4.1 50.9,-8.5 77.7,-13.3 245.6,-43.9 557.4,-113.1 768.2,-171.5 448.7,-155 1424.7,-1831.5 1424.7,-1831.5"
         style="fill:#5551e3;fill-opacity:1;fill-rule:nonzero;stroke:none"
         id="path226" />
      <path
         d="m 24644,11929.8 c 0,0 -275.7,-703.1 -660.4,-703.1 -384.7,0 -651.4,715.3 -651.4,715.3 65,7.7 126.8,12.3 185.1,13.2 140.4,-195.1 256.9,-282.1 352.1,-318.7 26.3,-10.2 51.1,-16.5 74.2,-20.1 h 0.1 c 20.1,-3.2 38.9,-4.4 56.6,-4.4 288.5,0 463.5,343.2 463.5,343.2 l 24,-2.7 c 44.7,-5.3 97.7,-13 156.2,-22.7"
         style="fill:#4341b9;fill-opacity:1;fill-rule:nonzero;stroke:none"
         id="path228" />
      <path
         d="m 23943.6,11616.4 -415.9,-389.7 -219.9,712.4 c 74,9.4 144,15.1 209.5,16.1 140.4,-195.1 256.9,-282.1 352.1,-318.7 26.3,-10.2 51.1,-16.5 74.2,-20.1"
         style="fill:#e9e7fd;fill-opacity:1;fill-rule:nonzero;stroke:none"
         id="path230" />
      <path
         d="m 24721.7,11916.5 -296.3,-689.8 -425.1,385.3 c 288.5,0 463.5,343.2 463.5,343.2 l 24,-2.7 c 63.8,-7.5 144.4,-20 233.9,-36"
         style="fill:#e9e7fd;fill-opacity:1;fill-rule:nonzero;stroke:none"
         id="path232" />
      <path
         d="m 25842,9559.3 c -46.2,61.1 -96.8,136.6 -148.5,222.5 l -128.7,-684.8 -31.5,-719.9 c -627.9,-127.1 -2358.1,-107.1 -3060.9,31 0,0 2867.1,301.3 2867.1,781.9 0,480.6 -2917.2,25.6 -3020.4,564.2 l -22.7,297.1 179.7,498.7 c 0,0 -62.5,-589.2 433.5,-879.4 238.2,-139.4 809.4,-100.6 1192.4,-100.6 589.1,0 1057.5,-39.3 1308.2,240 251.9,280.7 284.7,740 284.7,740 l 136.3,-492.5 10.8,-498.2"
         style="fill:#4341b9;fill-opacity:1;fill-rule:nonzero;stroke:none"
         id="path234" />
      <path
         d="M 25742.9,6791.3 H 22206 l -670.2,2960.2 c -30.4,134.2 71.6,262 209.3,262 h 4458.7 c 137.6,0 239.7,-127.8 209.3,-262 l -670.2,-2960.2"
         style="fill:#fefefe;fill-opacity:1;fill-rule:nonzero;stroke:none"
         id="path236" />
      <path
         d="m 25698.3,7937.3 h -12.9 l 16.9,183.5 18.2,189 c 12.9,129.1 25.7,261 39.8,395.5 l 21.4,207.2 23.2,213.7 c 13.2,120.8 26.7,243.8 39,369 -69.8,-1.7 -139.4,-3.1 -208.9,-3.1 -27.1,0 -54.2,0.3 -81.2,0.7 -117.4,1.7 -234.3,8.1 -351.2,15.7 -117,7.7 -234,17.7 -350.9,30.5 -117.1,13.1 -234.3,28.6 -351.5,50.6 l 0.9,17 c 119.6,18.3 239.1,30.1 358.6,39.4 119.6,9.1 239.2,15.4 358.6,19.5 89.3,2.8 178.6,5.1 267.7,5.1 30,0 60,-0.3 90,-0.9 118.8,-1.7 236.9,-8.7 354.9,-15.7 l 69.4,-4.1 -13.9,-75 c -28.3,-152.8 -53.3,-302.3 -77.8,-448.7 l -36.1,-213.7 -36.1,-207.2 c -23.1,-134.5 -47,-266.4 -69.8,-395.5 l -34.3,-189 -34,-183.5"
         style="fill:#fefefe;fill-opacity:1;fill-rule:nonzero;stroke:none"
         id="path238" />
      <path
         d="m 22046.8,10013.5 695.8,-2512.1 3041.3,-529 H 22165 l -629.2,2779.1 c -30.4,134.3 71.6,262 209.2,262 h 301.8"
         style="fill:#e9e7fd;fill-opacity:1;fill-rule:nonzero;stroke:none"
         id="path240" />
      <path
         d="m 25896.2,6677.5 h -3840 l -50.8,294.9 h 3941.7 l -50.9,-294.9"
         style="fill:#2b2d77;fill-opacity:1;fill-rule:nonzero;stroke:none"
         id="path242" />
      <path
         d="m 24327.7,8348.3 c -8,-153.7 -166.1,-273.3 -353.3,-273.3 -187.2,0 -345.2,119.6 -353.2,273.3 -8.5,161.1 149.5,297.4 353.2,297.4 203.8,0 361.8,-136.3 353.3,-297.4"
         style="fill:#ecf3fc;fill-opacity:1;fill-rule:nonzero;stroke:none"
         id="path244" />
      <path
         d="m 21794.3,12179 c -2.6,0 -5.1,0.8 -7.3,2.5 -5.3,4.1 -6.3,11.6 -2.2,16.8 4.7,6.2 476.7,624.8 689.7,1176.6 69.1,178.9 118.4,353.9 166,523.1 98.7,350.6 184,653.4 403.5,786.4 5.7,3.5 13.1,1.6 16.5,-4 3.5,-5.7 1.6,-13.1 -4,-16.5 -211.5,-128.1 -295.5,-426.7 -392.9,-772.4 -47.8,-169.8 -97.2,-345.3 -166.7,-525.3 -214.3,-555 -688.3,-1176.3 -693.1,-1182.5 -2.3,-3 -5.9,-4.7 -9.5,-4.7"
         style="fill:#262b66;fill-opacity:1;fill-rule:nonzero;stroke:none"
         id="path246" />
      <path
         d="m 22262.6,13466.4 c -1.4,0 -2.9,0.3 -4.3,0.8 -6.2,2.4 -9.3,9.4 -6.9,15.6 177,456.1 414.7,672.2 582.9,773.1 183.4,110.1 323.1,111.4 328.9,111.4 6.7,0 12,-5.4 12,-12 0,-6.7 -5.3,-12 -12,-12.1 -1.3,0 -140.1,-1.5 -318,-108.8 -164.5,-99.1 -397.2,-311.6 -571.4,-760.3 -1.8,-4.8 -6.4,-7.7 -11.2,-7.7"
         style="fill:#262b66;fill-opacity:1;fill-rule:nonzero;stroke:none"
         id="path248" />
      <path
         d="m 24092.5,14175.1 c 1.4,-0.2 2.8,-0.8 4.1,-1.7 5.5,-3.6 7.1,-11 3.5,-16.6 -267.4,-409.7 -544.5,-572.1 -730,-636.2 -202.1,-69.8 -339,-42.2 -344.7,-41 -6.5,1.4 -10.7,7.7 -9.3,14.2 1.3,6.5 7.7,10.6 14.2,9.3 1.3,-0.3 137.4,-27.4 333.7,40.8 181.4,63.1 452.9,222.9 716,626.1 2.7,4.2 7.8,6.1 12.5,5.1"
         style="fill:#2b2d77;fill-opacity:1;fill-rule:nonzero;stroke:none"
         id="path250" />
      <path
         d="m 25281.3,13114.2 c 104.9,256.1 180.8,544.7 146.2,801 -56.7,419.4 -279.5,659.4 -456.4,787 -192.1,138.5 -373.4,178.2 -375.2,178.6 -6.5,1.4 -10.6,7.8 -9.2,14.3 1.3,6.5 7.8,10.6 14.2,9.2 1.8,-0.4 187.3,-40.8 383.4,-182 181.1,-130.3 409.1,-375.6 467,-803.9 38.4,-284.3 -56.6,-607 -177.5,-882.7 l 7.5,78.5"
         style="fill:#262b66;fill-opacity:1;fill-rule:nonzero;stroke:none"
         id="path252" />
      <path
         d="m 26204.7,5454.8 c -13.3,-28.8 -29.3,-58.8 -48.6,-89.8 -236.9,-200.1 -448.9,-178.7 -448.9,-178.7 -425.6,-50.2 -566.8,-2.5 -973.7,47 l -117.9,41.9 -127.7,45.4 215.4,591.6 491,-134.7 450.6,48.2 c 0,0 346.4,114.7 449.2,114.7 102.8,0 159,-125.1 159,-125.1 0,0 50.6,-146.8 -48.4,-360.5"
         style="fill:#4341b9;fill-opacity:1;fill-rule:nonzero;stroke:none"
         id="path254" />
      <path
         d="m 26204.7,5454.8 c -13.3,-28.8 -29.3,-58.8 -48.6,-89.8 -236.9,-200.1 -448.9,-178.7 -448.9,-178.7 -425.6,-50.2 -566.8,-2.5 -973.7,47 l -117.9,41.9 c 15.2,31.4 37.9,65.6 67.6,103.1 0,0 898,-225.4 1521.5,76.5"
         style="fill:#2b2d77;fill-opacity:1;fill-rule:nonzero;stroke:none"
         id="path256" />
      <path
         d="m 24645.3,5274.1 262.5,721.2 -3898.7,1792.2 c -437.9,183.5 -927.1,4.7 -1071.3,-391.6 -144.3,-396.3 115.5,-847.7 568.9,-988.6 l 4138.6,-1133.2"
         style="fill:#5551e3;fill-opacity:1;fill-rule:nonzero;stroke:none"
         id="path258" />
      <path
         d="m 23408.2,5612.8 -2901.4,794.5 c -21.3,6.6 -42,13.8 -62.4,21.7 20.3,-7.9 41.1,-15.1 62.3,-21.7 l 2901.5,-794.5 v 0"
         style="fill:#bab9ca;fill-opacity:1;fill-rule:nonzero;stroke:none"
         id="path260" />
      <path
         d="m 24529.5,5305.8 -1121.3,307 v 0 l 1121.1,-306.9 0.2,-0.1"
         style="fill:#9d9cbe;fill-opacity:1;fill-rule:nonzero;stroke:none"
         id="path262" />
      <path
         d="m 24618.7,5281.4 -89.2,24.4 -0.2,0.1 89.4,-24.5 v 0 m 64.5,96.9 16.9,46.5 -16.9,-46.5 v 0 0"
         style="fill:#363494;fill-opacity:1;fill-rule:nonzero;stroke:none"
         id="path264" />
      <path
         d="m 24645.3,5274.1 -26.6,7.3 v 0 l 26.6,-7.3 37.9,104.2 v 0 0 l -37.9,-104.2"
         style="fill:#22245f;fill-opacity:1;fill-rule:nonzero;stroke:none"
         id="path266" />
      <path
         d="m 20444.2,6429.1 c -0.8,0.4 -1.6,0.7 -2.4,1 0.8,-0.3 1.6,-0.7 2.4,-1 m -2.5,1 c -1.6,0.6 -3.3,1.3 -4.9,1.9 1.6,-0.6 3.3,-1.3 4.9,-1.9 m -5.4,2.1 c -0.6,0.3 -1.2,0.5 -1.8,0.8 0.6,-0.3 1.2,-0.5 1.8,-0.8 m -2.6,1.1 c -0.5,0.2 -1,0.4 -1.5,0.6 0.5,-0.2 1,-0.4 1.5,-0.6 m -2.4,1 c -0.5,0.2 -1,0.4 -1.5,0.6 0.5,-0.2 1,-0.4 1.5,-0.6 m -2.7,1 c -0.6,0.3 -1.2,0.5 -1.8,0.8 0.6,-0.3 1.3,-0.5 1.8,-0.8 m -3.1,1.3 c -0.3,0.2 -0.6,0.3 -0.9,0.4 0.3,-0.1 0.6,-0.2 0.9,-0.4 m -2.3,1 c -0.2,0.1 -0.5,0.2 -0.8,0.3 0.3,-0.1 0.6,-0.2 0.8,-0.3 m -2.3,1 c -0.2,0 -0.3,0.1 -0.5,0.2 0.2,-0.1 0.4,-0.2 0.5,-0.2 m -8.1,3.4 c -0.1,0 -0.1,0.1 -0.2,0.1 0.1,0 0.1,-0.1 0.2,-0.1 m -411.5,358.4 v 0 0 m -4,6.9 v 0 0 m -0.9,1.6 c -0.1,0.1 -0.1,0.1 -0.1,0.2 0,-0.1 0,-0.1 0.1,-0.2 m -1,1.8 c 0,0 -0.1,0 -0.1,0.1 0,-0.1 0.1,-0.1 0.1,-0.1 m -3.8,6.7 c -0.1,0.1 -0.1,0.2 -0.2,0.4 0.1,-0.2 0.2,-0.3 0.2,-0.4 m -1,1.8 c 0,0.1 -0.1,0.3 -0.2,0.4 0.1,-0.2 0.1,-0.3 0.2,-0.4 m -2.8,5.2 -0.1,0.1 0.1,-0.1 m -0.8,1.5 c -0.1,0.2 -0.2,0.4 -0.3,0.6 0.1,-0.2 0.2,-0.4 0.3,-0.6 m -1,1.8 c -0.1,0.2 -0.2,0.4 -0.3,0.7 0.1,-0.3 0.2,-0.5 0.3,-0.7 m -1,1.9 c -0.1,0.2 -0.3,0.5 -0.4,0.7 0.1,-0.2 0.3,-0.5 0.4,-0.7 m -1.7,3.1 c 0,0.2 -0.1,0.4 -0.2,0.5 0.1,-0.1 0.2,-0.3 0.2,-0.5 m -0.8,1.7 c -0.2,0.2 -0.3,0.5 -0.4,0.8 0.1,-0.3 0.2,-0.6 0.4,-0.8 m -1,1.9 c -0.2,0.3 -0.3,0.6 -0.5,0.9 0.2,-0.4 0.3,-0.6 0.5,-0.9 m -1,1.9 c -0.2,0.3 -0.3,0.6 -0.5,1 0.2,-0.4 0.3,-0.7 0.5,-1 m -1,1.9 c -0.2,0.5 -0.5,1 -0.7,1.4 0.2,-0.4 0.5,-0.9 0.7,-1.4 m -1.4,2.7 c -0.2,0.4 -0.3,0.8 -0.5,1.1 0.2,-0.3 0.3,-0.7 0.5,-1.1 m -1,2.1 c -0.2,0.3 -0.3,0.6 -0.5,1 0.2,-0.4 0.3,-0.7 0.5,-1 m -1,1.9 c -0.2,0.4 -0.4,0.8 -0.5,1.1 0.1,-0.3 0.3,-0.7 0.5,-1.1 m -1,2 c -0.2,0.5 -0.5,1 -0.7,1.6 0.2,-0.6 0.5,-1.1 0.7,-1.6 m -1.1,2.3 c -0.3,0.5 -0.5,1.1 -0.8,1.6 0.3,-0.6 0.5,-1.1 0.8,-1.6 m -1.2,2.4 c -0.2,0.4 -0.4,0.8 -0.6,1.2 0.2,-0.4 0.4,-0.8 0.6,-1.2 m -1,2 c -0.2,0.4 -0.4,0.8 -0.5,1.2 0.1,-0.4 0.3,-0.8 0.5,-1.2 m -0.9,2 c -0.3,0.5 -0.5,1 -0.7,1.5 0.2,-0.5 0.4,-1 0.7,-1.5 m -1,2 c -0.3,0.7 -0.6,1.3 -0.9,2 0.3,-0.7 0.6,-1.3 0.9,-2 m -1.2,2.5 c -0.2,0.5 -0.4,1 -0.7,1.5 0.3,-0.5 0.5,-1 0.7,-1.5 m -1,2.2 c -0.2,0.4 -0.4,0.9 -0.6,1.4 0.2,-0.5 0.4,-0.9 0.6,-1.4 m -1,2 c -0.2,0.5 -0.4,1 -0.7,1.5 0.3,-0.5 0.5,-1 0.7,-1.5 m -0.9,2.1 c -0.3,0.6 -0.6,1.3 -0.9,2 0.3,-0.7 0.6,-1.4 0.9,-2 m -1.1,2.3 c -0.2,0.6 -0.5,1.1 -0.8,1.7 0.3,-0.6 0.6,-1.1 0.8,-1.7 m -1,2.3 c -0.3,0.5 -0.5,1 -0.7,1.5 0.2,-0.5 0.4,-1 0.7,-1.5 m -1,2.1 c -0.2,0.5 -0.4,1 -0.7,1.6 0.3,-0.5 0.5,-1.1 0.7,-1.6 m -0.9,2.1 c -0.6,1.3 -1.2,2.7 -1.8,4.1 0.6,-1.4 1.2,-2.8 1.8,-4.1 m -2,4.5 c -0.3,0.6 -0.5,1.1 -0.7,1.7 0.2,-0.5 0.4,-1.1 0.7,-1.7 m -1,2.2 c -0.2,0.5 -0.4,1.1 -0.7,1.6 0.3,-0.5 0.5,-1.1 0.7,-1.6 m -0.9,2.1 c -0.6,1.4 -1.2,2.8 -1.8,4.2 0.6,-1.4 1.2,-2.8 1.8,-4.2 m -1.9,4.4 c -0.2,0.6 -0.5,1.3 -0.8,1.9 0.3,-0.6 0.6,-1.3 0.8,-1.9 m -0.9,2.3 c -0.3,0.6 -0.5,1.1 -0.8,1.7 0.3,-0.6 0.5,-1.1 0.8,-1.7 m -0.9,2.1 c -0.3,0.7 -0.6,1.4 -0.9,2.1 0.3,-0.7 0.6,-1.4 0.9,-2.1 m -0.9,2.1 c -0.6,1.5 -1.2,2.9 -1.8,4.4 0.6,-1.5 1.2,-3 1.8,-4.4 m -1.9,4.6 c -0.2,0.6 -0.5,1.2 -0.8,1.9 0.3,-0.6 0.6,-1.3 0.8,-1.9 m -0.9,2.2 c -0.2,0.7 -0.5,1.3 -0.8,2 0.3,-0.6 0.6,-1.3 0.8,-2 m -0.8,2.1 c -0.6,1.5 -1.2,2.9 -1.8,4.4 0.6,-1.5 1.2,-2.9 1.8,-4.4 m -1.8,4.5 c -0.3,0.7 -0.5,1.3 -0.8,2 0.3,-0.7 0.5,-1.3 0.8,-2 m -0.9,2.3 c -0.3,0.7 -0.5,1.3 -0.8,2 0.3,-0.7 0.5,-1.3 0.8,-2 m -0.8,2.1 c -0.9,2.2 -1.7,4.4 -2.5,6.6 0.8,-2.2 1.6,-4.4 2.5,-6.6 m -2.6,6.8 c -0.2,0.7 -0.5,1.4 -0.8,2.1 0.3,-0.7 0.5,-1.4 0.8,-2.1 m -0.8,2.2 c -0.8,2.2 -1.6,4.4 -2.4,6.7 0.8,-2.3 1.6,-4.5 2.4,-6.7 m -2.5,6.7 c -0.2,0.7 -0.5,1.5 -0.7,2.2 0.2,-0.7 0.5,-1.5 0.7,-2.2 m -0.8,2.3 c -1,3 -2.1,6 -3.1,8.9 1,-3 2.1,-5.9 3.1,-8.9 m -3.1,9 c -1.3,3.7 -2.5,7.5 -3.8,11.3 1.3,-3.8 2.5,-7.6 3.8,-11.3 m -3.8,11.3 c -1,3 -1.9,6 -2.8,9 0.9,-3 1.9,-6 2.8,-9 m -2.9,9.1 c -0.9,3 -1.8,6 -2.7,9 0.9,-3 1.8,-6 2.7,-9 m -2.7,9.2 c -0.9,3 -1.8,6 -2.6,9 0.8,-3 1.7,-6 2.6,-9 m -2.7,9.1 c -0.2,0.7 -0.4,1.4 -0.6,2.2 0.2,-0.7 0.4,-1.5 0.6,-2.2 m -0.6,2.3 c -0.6,2.2 -1.3,4.5 -1.9,6.8 0.7,-2.3 1.3,-4.6 1.9,-6.8 m -1.9,6.8 c -0.2,0.8 -0.4,1.5 -0.6,2.2 0.2,-0.7 0.4,-1.4 0.6,-2.2 m -0.6,2.4 c -0.6,2.2 -1.2,4.5 -1.8,6.8 0.6,-2.3 1.2,-4.6 1.8,-6.8 m -1.8,6.8 c -0.1,0.7 -0.3,1.5 -0.5,2.2 0.2,-0.7 0.4,-1.5 0.5,-2.2 m -0.6,2.4 c -0.1,0.7 -0.3,1.4 -0.5,2.2 0.2,-0.8 0.4,-1.5 0.5,-2.2 m -0.5,2.2 c -0.6,2.3 -1.1,4.6 -1.7,6.9 0.6,-2.3 1.1,-4.6 1.7,-6.9 m -1.7,7 c -0.2,0.7 -0.3,1.4 -0.5,2.1 0.2,-0.7 0.3,-1.4 0.5,-2.1 m -0.5,2.3 c -0.6,2.3 -1.1,4.6 -1.6,6.8 0.5,-2.2 1,-4.5 1.6,-6.8 m -1.6,6.9 c -0.2,0.7 -0.3,1.4 -0.5,2.2 0.2,-0.7 0.3,-1.5 0.5,-2.2 m -0.5,2.4 c -0.2,0.7 -0.3,1.5 -0.5,2.2 0.1,-0.7 0.3,-1.5 0.5,-2.2 m -0.5,2.2 c -0.3,1.5 -0.7,3.1 -1,4.6 0.3,-1.5 0.7,-3.1 1,-4.6 m -1,4.8 c -0.2,0.6 -0.3,1.3 -0.4,2 0.1,-0.7 0.2,-1.4 0.4,-2 m -0.5,2.4 c -0.1,0.6 -0.3,1.3 -0.4,1.9 0.1,-0.6 0.3,-1.3 0.4,-1.9 m -0.5,2.2 c -0.3,1.5 -0.6,3 -0.9,4.5 0.3,-1.5 0.6,-3 0.9,-4.5 m -0.9,4.6 c -0.1,0.7 -0.2,1.4 -0.4,2.1 0.2,-0.7 0.3,-1.4 0.4,-2.1 m -0.5,2.5 c -0.1,0.6 -0.2,1.2 -0.3,1.8 0.1,-0.6 0.2,-1.2 0.3,-1.8 m -0.4,2.3 c -0.1,0.6 -0.2,1.3 -0.4,1.9 0.2,-0.6 0.3,-1.3 0.4,-1.9 m -0.4,2.2 c -0.1,0.7 -0.3,1.5 -0.4,2.2 0.1,-0.7 0.3,-1.5 0.4,-2.2 m -0.4,2.4 c -0.1,0.6 -0.3,1.3 -0.4,2 0.1,-0.7 0.3,-1.4 0.4,-2 m -0.5,2.5 c -0.1,0.6 -0.2,1.1 -0.3,1.7 0.1,-0.6 0.2,-1.1 0.3,-1.7 m -0.4,2.3 c -0.1,0.5 -0.2,1.1 -0.3,1.7 0.1,-0.6 0.2,-1.1 0.3,-1.7 m -0.4,2.2 c -0.2,1.4 -0.4,2.9 -0.7,4.3 0.3,-1.4 0.5,-2.9 0.7,-4.3 m -0.8,4.9 c -0.1,0.5 -0.1,1.1 -0.2,1.6 0,-0.5 0.1,-1.1 0.2,-1.6 m -0.3,2.3 c -0.1,0.5 -0.2,1 -0.3,1.5 0.1,-0.5 0.2,-1 0.3,-1.5 m -0.4,2.2 c -0.1,0.6 -0.2,1.2 -0.3,1.8 0.1,-0.6 0.2,-1.2 0.3,-1.8 m -0.3,2.2 c -0.1,0.7 -0.2,1.4 -0.3,2.1 0.1,-0.7 0.2,-1.4 0.3,-2.1 m -0.5,2.8 c 0,0.5 -0.1,1 -0.2,1.5 0.1,-0.5 0.2,-1 0.2,-1.5 m -0.3,2.3 c -0.1,0.4 -0.1,0.9 -0.2,1.3 0.1,-0.4 0.1,-0.9 0.2,-1.3 m -0.3,2.2 c -0.1,0.5 -0.1,0.9 -0.2,1.4 0.1,-0.5 0.1,-0.9 0.2,-1.4 m -0.3,2.1 c -0.1,0.7 -0.2,1.4 -0.3,2.1 0.1,-0.7 0.2,-1.4 0.3,-2.1 m -0.4,2.9 c -0.1,0.4 -0.1,0.9 -0.2,1.3 0.1,-0.4 0.1,-0.9 0.2,-1.3 m -0.3,2.2 c -0.1,0.5 -0.1,0.9 -0.2,1.3 0.1,-0.4 0.1,-0.8 0.2,-1.3 m -0.3,2.2 c 0,0.5 -0.1,0.9 -0.1,1.3 0,-0.4 0.1,-0.9 0.1,-1.3 m -0.3,2.2 c 0,0.6 -0.1,1.2 -0.2,1.8 0.1,-0.6 0.2,-1.2 0.2,-1.8 m -0.3,2.7 c 0,0.5 -0.1,1 -0.2,1.5 0.1,-0.5 0.2,-1 0.2,-1.5 m -0.3,2.4 c 0,0.4 -0.1,0.8 -0.1,1.2 0,-0.4 0.1,-0.8 0.1,-1.2 m -0.2,2.2 c -0.1,0.4 -0.1,0.8 -0.2,1.2 0.1,-0.4 0.1,-0.8 0.2,-1.2 m -0.3,2.2 c 0,0.4 -0.1,0.8 -0.1,1.2 0,-0.4 0.1,-0.8 0.1,-1.2 m -0.3,2.8 c 0,0.4 -0.1,0.9 -0.1,1.3 0,-0.4 0.1,-0.9 0.1,-1.3 m -0.2,2.5 c -0.1,0.3 -0.1,0.6 -0.1,0.9 0,-0.3 0,-0.6 0.1,-0.9 m -0.3,2.1 c 0,0.3 0,0.6 0,0.9 0,-0.3 0,-0.6 0,-0.9 m -0.2,2.2 c 0,0.2 0,0.4 0,0.7 0,-0.3 0,-0.5 0,-0.7 m -0.5,5.4 c 0,0.2 0,0.4 0,0.6 0,-0.2 0,-0.4 0,-0.6 m -0.1,2 c -0.1,0.2 -0.1,0.5 -0.1,0.7 0,-0.2 0,-0.4 0.1,-0.7 m -0.2,2.1 c 0,0.2 -0.1,0.4 -0.1,0.6 0,-0.2 0.1,-0.4 0.1,-0.6 m -0.5,5.9 c 0,0 0,0 0,0.1 v -0.1 m -0.1,1.6 c 0,0.2 0,0.4 0,0.5 0,-0.1 0,-0.3 0,-0.5 m -0.1,2.1 c -0.1,0.1 -0.1,0.3 -0.1,0.4 0,-0.1 0,-0.3 0.1,-0.4 m -0.5,7.8 c 0,0 0,0 0,0.1 0,-0.1 0,-0.1 0,-0.1 m -0.1,1.8 c 0,0.1 0,0.2 -0.1,0.3 0.1,-0.1 0.1,-0.2 0.1,-0.3 m -0.5,9.7 c 0,0.1 0,0.1 0,0.1 v -0.1"
         style="fill:#bab9ca;fill-opacity:1;fill-rule:nonzero;stroke:none"
         id="path268" />
      <path
         d="m 24645.3,5274.1 -26.6,7.3 -89.4,24.5 -1121.1,306.9 -2901.5,794.5 c -21.2,6.6 -42,13.8 -62.3,21.7 -0.1,0.1 -0.2,0.1 -0.2,0.1 -0.8,0.3 -1.6,0.7 -2.4,1 h -0.1 c -1.6,0.6 -3.3,1.3 -4.9,1.9 -0.2,0.1 -0.3,0.2 -0.5,0.2 -0.6,0.3 -1.2,0.5 -1.8,0.8 -0.3,0.1 -0.5,0.2 -0.8,0.3 -0.5,0.2 -1,0.4 -1.5,0.6 -0.3,0.1 -0.6,0.2 -0.9,0.4 -0.5,0.2 -1,0.4 -1.5,0.6 -0.4,0.1 -0.8,0.3 -1.2,0.4 -0.5,0.3 -1.2,0.5 -1.8,0.8 -0.4,0.2 -0.8,0.3 -1.3,0.5 -0.3,0.2 -0.6,0.3 -0.9,0.4 -0.4,0.2 -0.9,0.4 -1.4,0.6 -0.2,0.1 -0.5,0.2 -0.8,0.3 -0.5,0.2 -1,0.4 -1.5,0.7 -0.1,0 -0.3,0.1 -0.5,0.2 -2.5,1 -5.1,2.1 -7.6,3.2 -0.1,0 -0.1,0.1 -0.2,0.1 -179.8,77.7 -322.3,206.4 -411.3,358.3 v 0 c -1.4,2.3 -2.7,4.6 -4,6.9 v 0 c -0.3,0.5 -0.6,1.1 -0.9,1.6 -0.1,0.1 -0.1,0.1 -0.1,0.2 -0.3,0.5 -0.6,1 -0.9,1.6 0,0 -0.1,0 -0.1,0.1 -1.2,2.2 -2.5,4.4 -3.7,6.6 0,0.1 -0.1,0.2 -0.2,0.4 -0.3,0.4 -0.5,0.9 -0.8,1.4 -0.1,0.1 -0.1,0.2 -0.2,0.4 -0.9,1.6 -1.7,3.2 -2.6,4.8 l -0.1,0.1 c -0.2,0.5 -0.5,0.9 -0.7,1.4 -0.1,0.2 -0.2,0.4 -0.3,0.6 -0.3,0.4 -0.5,0.8 -0.7,1.2 -0.1,0.2 -0.2,0.4 -0.3,0.7 -0.3,0.4 -0.5,0.8 -0.7,1.2 -0.1,0.2 -0.3,0.5 -0.4,0.7 -0.4,0.8 -0.8,1.6 -1.3,2.4 0,0.2 -0.1,0.4 -0.2,0.5 -0.2,0.4 -0.4,0.8 -0.6,1.2 -0.2,0.2 -0.3,0.5 -0.4,0.8 -0.2,0.3 -0.4,0.7 -0.6,1.1 -0.2,0.3 -0.3,0.5 -0.5,0.9 -0.1,0.3 -0.3,0.6 -0.5,1 -0.2,0.3 -0.3,0.6 -0.5,1 -0.2,0.3 -0.3,0.6 -0.5,0.9 -0.2,0.5 -0.5,1 -0.7,1.4 -0.2,0.5 -0.5,0.9 -0.7,1.3 -0.2,0.4 -0.3,0.8 -0.5,1.1 -0.2,0.3 -0.3,0.6 -0.5,1 -0.2,0.3 -0.3,0.6 -0.5,1 -0.2,0.3 -0.3,0.6 -0.5,0.9 -0.2,0.4 -0.4,0.8 -0.5,1.1 -0.2,0.3 -0.3,0.6 -0.5,0.9 -0.2,0.5 -0.5,1 -0.7,1.6 -0.2,0.2 -0.3,0.4 -0.4,0.7 -0.3,0.5 -0.5,1 -0.8,1.6 -0.1,0.3 -0.2,0.5 -0.4,0.8 -0.2,0.4 -0.4,0.8 -0.6,1.2 -0.1,0.3 -0.2,0.5 -0.4,0.8 -0.2,0.4 -0.4,0.8 -0.5,1.2 -0.2,0.3 -0.3,0.5 -0.4,0.8 -0.3,0.5 -0.5,1 -0.7,1.5 -0.1,0.1 -0.2,0.3 -0.3,0.5 -0.3,0.7 -0.6,1.3 -0.9,2 -0.1,0.2 -0.2,0.4 -0.3,0.5 -0.2,0.5 -0.4,1 -0.7,1.5 -0.1,0.2 -0.2,0.5 -0.3,0.7 -0.2,0.5 -0.4,0.9 -0.6,1.4 -0.2,0.2 -0.2,0.4 -0.4,0.6 -0.2,0.5 -0.4,1 -0.7,1.5 0,0.2 -0.1,0.4 -0.2,0.6 -0.3,0.6 -0.6,1.3 -0.9,2 -0.1,0.1 -0.1,0.2 -0.2,0.3 -0.2,0.6 -0.5,1.1 -0.8,1.7 -0.1,0.2 -0.1,0.4 -0.2,0.6 -0.3,0.5 -0.5,1 -0.7,1.5 -0.1,0.2 -0.2,0.4 -0.3,0.6 -0.2,0.5 -0.4,1.1 -0.7,1.6 -0.1,0.1 -0.1,0.3 -0.2,0.5 -0.6,1.3 -1.2,2.7 -1.8,4.1 -0.1,0.1 -0.2,0.3 -0.2,0.4 -0.3,0.6 -0.5,1.2 -0.7,1.7 -0.1,0.1 -0.2,0.3 -0.3,0.5 -0.2,0.5 -0.4,1.1 -0.7,1.6 0,0.2 -0.1,0.3 -0.2,0.5 -0.6,1.4 -1.2,2.8 -1.8,4.2 0,0.1 0,0.1 -0.1,0.2 -0.2,0.6 -0.5,1.3 -0.8,1.9 0,0.1 -0.1,0.2 -0.1,0.4 -0.3,0.6 -0.5,1.1 -0.8,1.7 0,0.2 -0.1,0.3 -0.1,0.4 -0.3,0.7 -0.6,1.4 -0.9,2.1 v 0 c -0.6,1.4 -1.2,2.9 -1.8,4.4 0,0 -0.1,0.1 -0.1,0.2 -0.2,0.6 -0.5,1.3 -0.8,1.9 0,0.1 0,0.2 -0.1,0.3 -0.2,0.7 -0.5,1.4 -0.8,2 v 0.1 c -0.6,1.5 -1.2,2.9 -1.8,4.4 0,0 0,0 0,0.1 -0.3,0.7 -0.5,1.3 -0.8,2 0,0.1 -0.1,0.2 -0.1,0.3 -0.3,0.7 -0.5,1.3 -0.8,2 v 0.1 c -0.9,2.2 -1.7,4.4 -2.5,6.6 -0.1,0.1 -0.1,0.1 -0.1,0.2 -0.3,0.7 -0.5,1.4 -0.8,2.1 v 0.1 c -0.8,2.2 -1.6,4.4 -2.4,6.7 -0.1,0 -0.1,0 -0.1,0 -0.2,0.7 -0.5,1.5 -0.7,2.2 -0.1,0 -0.1,0.1 -0.1,0.1 -1,3 -2.1,5.9 -3.1,8.9 0,0.1 0,0.1 0,0.1 -1.3,3.7 -2.5,7.5 -3.8,11.3 v 0 c -0.9,3 -1.9,6 -2.8,9 l -0.1,0.1 c -0.9,3 -1.8,6 -2.7,9 0,0.1 0,0.1 0,0.2 -0.9,3 -1.8,6 -2.6,9 l -0.1,0.1 c -0.2,0.7 -0.4,1.5 -0.6,2.2 0,0 0,0 0,0.1 -0.6,2.2 -1.2,4.5 -1.9,6.8 v 0 c -0.2,0.8 -0.4,1.5 -0.6,2.2 0,0.1 0,0.1 0,0.2 -0.6,2.2 -1.2,4.5 -1.8,6.8 v 0 c -0.1,0.7 -0.3,1.5 -0.5,2.2 0,0.1 0,0.1 -0.1,0.2 -0.1,0.7 -0.3,1.4 -0.5,2.2 v 0 c -0.6,2.3 -1.1,4.6 -1.7,6.9 v 0.1 c -0.2,0.7 -0.3,1.4 -0.5,2.1 0,0.1 0,0.1 0,0.2 -0.6,2.3 -1.1,4.6 -1.6,6.8 0,0.1 0,0.1 0,0.1 -0.2,0.7 -0.3,1.5 -0.5,2.2 0,0 0,0.1 0,0.2 -0.2,0.7 -0.4,1.5 -0.5,2.2 v 0 c -0.3,1.5 -0.7,3.1 -1,4.6 0,0.1 0,0.1 0,0.2 -0.2,0.6 -0.3,1.3 -0.4,2 -0.1,0.1 -0.1,0.2 -0.1,0.4 -0.1,0.6 -0.3,1.3 -0.4,1.9 0,0.1 0,0.2 -0.1,0.3 -0.3,1.5 -0.6,3 -0.9,4.5 0,0 0,0 0,0.1 -0.1,0.7 -0.2,1.4 -0.4,2.1 0,0.1 0,0.3 -0.1,0.4 -0.1,0.6 -0.2,1.2 -0.3,1.8 0,0.2 -0.1,0.3 -0.1,0.5 -0.1,0.6 -0.2,1.3 -0.4,1.9 0,0.1 0,0.2 0,0.3 -0.1,0.7 -0.3,1.5 -0.4,2.2 0,0.1 0,0.1 0,0.2 -0.1,0.6 -0.3,1.3 -0.4,2 0,0.2 -0.1,0.3 -0.1,0.5 -0.1,0.6 -0.2,1.1 -0.3,1.7 0,0.2 0,0.4 -0.1,0.6 -0.1,0.6 -0.2,1.1 -0.3,1.7 0,0.2 0,0.3 -0.1,0.5 -0.2,1.4 -0.4,2.9 -0.7,4.3 0,0.2 0,0.4 -0.1,0.6 -0.1,0.5 -0.2,1.1 -0.2,1.6 -0.1,0.2 -0.1,0.5 -0.1,0.7 -0.1,0.5 -0.2,1 -0.3,1.5 0,0.2 -0.1,0.5 -0.1,0.7 -0.1,0.6 -0.2,1.2 -0.3,1.8 0,0.1 0,0.2 0,0.4 -0.1,0.7 -0.2,1.4 -0.3,2.1 -0.1,0.2 -0.1,0.5 -0.2,0.7 0,0.5 -0.1,1 -0.2,1.5 0,0.2 0,0.5 -0.1,0.8 -0.1,0.4 -0.1,0.9 -0.2,1.3 0,0.3 -0.1,0.6 -0.1,0.9 -0.1,0.5 -0.1,0.9 -0.2,1.4 0,0.3 -0.1,0.5 -0.1,0.7 -0.1,0.7 -0.2,1.4 -0.3,2.1 0,0.2 -0.1,0.5 -0.1,0.8 -0.1,0.4 -0.1,0.9 -0.2,1.3 0,0.3 -0.1,0.6 -0.1,0.9 -0.1,0.5 -0.1,0.9 -0.2,1.3 0,0.3 0,0.6 -0.1,0.9 0,0.4 -0.1,0.9 -0.1,1.3 -0.1,0.3 -0.1,0.6 -0.2,0.9 0,0.6 -0.1,1.2 -0.2,1.8 0,0.3 0,0.6 -0.1,0.9 0,0.5 -0.1,1 -0.2,1.5 0,0.3 0,0.6 -0.1,0.9 0,0.4 -0.1,0.8 -0.1,1.2 -0.1,0.3 -0.1,0.7 -0.1,1 -0.1,0.4 -0.1,0.8 -0.2,1.2 0,0.3 0,0.6 -0.1,1 0,0.4 -0.1,0.8 -0.1,1.2 -0.1,0.5 -0.1,1.1 -0.2,1.6 0,0.4 -0.1,0.9 -0.1,1.3 -0.1,0.4 -0.1,0.8 -0.1,1.2 -0.1,0.3 -0.1,0.6 -0.1,0.9 -0.1,0.4 -0.1,0.8 -0.2,1.2 0,0.3 0,0.6 0,0.9 -0.1,0.4 -0.1,0.8 -0.2,1.3 0,0.2 0,0.4 0,0.7 -0.2,1.5 -0.3,3.1 -0.5,4.7 0,0.2 0,0.4 0,0.6 -0.1,0.5 -0.1,0.9 -0.1,1.4 -0.1,0.3 -0.1,0.5 -0.1,0.7 0,0.5 -0.1,0.9 -0.1,1.4 0,0.2 -0.1,0.4 -0.1,0.6 -0.1,1.8 -0.3,3.5 -0.4,5.3 v 0.1 c 0,0.5 -0.1,1 -0.1,1.5 0,0.2 0,0.4 0,0.5 -0.1,0.6 -0.1,1.1 -0.1,1.6 -0.1,0.1 -0.1,0.3 -0.1,0.4 -0.1,2.4 -0.3,4.9 -0.4,7.4 0,0 0,0 0,0.1 -0.1,0.6 -0.1,1.2 -0.1,1.7 0,0.1 0,0.2 -0.1,0.3 -0.1,3.1 -0.3,6.3 -0.4,9.4 v 0.1 c -0.4,8.9 -0.5,17.9 -0.5,26.9 0,75.8 12.9,152.2 39.9,226.5 82.3,226.1 277,381.4 510.3,439 -100.1,-198.4 -281.7,-640.6 -85.5,-926 259.3,-377.2 4330.2,-1454.1 4330.2,-1454.1 5.2,-1.4 10.6,-3.3 16.1,-5.8 l -8.8,-24.2 -16.9,-46.5 -37.9,-104.2"
         style="fill:#4441b6;fill-opacity:1;fill-rule:nonzero;stroke:none"
         id="path270" />
      <path
         d="m 24900.2,5979.7 c -7.6,3.6 -774.5,372.6 -1634.2,714 -1135.2,450.8 -1915.1,649.2 -2255.5,573.8 l -7.5,33.9 c 194.6,43.1 521.9,1.7 972.7,-123.1 359,-99.4 797.5,-251.6 1303.3,-452.5 860.8,-341.8 1628.7,-711.2 1636.3,-714.9 l -15.1,-31.2"
         style="fill:#3483ff;fill-opacity:1;fill-rule:nonzero;stroke:none"
         id="path272" />
      <path
         d="m 22923.7,5320.6 -14.1,-5 -231.5,-82.3 c -406.9,-49.5 -548.1,-97.2 -973.7,-47 0,0 -211.9,-21.4 -448.8,178.7 h -0.1 c -162.1,261.2 -97,450.3 -97,450.3 0,0 56.2,125.1 159,125.1 102.8,0 449.2,-114.7 449.2,-114.7 l 450.7,-48.2 491,134.6 171.6,-471.5 26.6,-72.9 17.1,-47.1"
         style="fill:#4341b9;fill-opacity:1;fill-rule:nonzero;stroke:none"
         id="path274" />
      <path
         d="m 22909.6,5315.6 -231.5,-82.3 c -406.9,-49.5 -548.1,-97.2 -973.7,-47 0,0 -211.9,-21.4 -448.8,178.7 h -0.1 c 0,0 784,-108 1147.3,-90.9 297.6,14 436.7,126.3 477.2,166.5 9,8.9 13.1,14.2 13.1,14.2 6.2,-31.6 10.7,-60.6 13.5,-87.1 1.9,-18.5 3,-35.9 3,-52.1"
         style="fill:#2b2d77;fill-opacity:1;fill-rule:nonzero;stroke:none"
         id="path276" />
      <path
         d="m 27688.1,7169.4 c 0,-328.3 -240.6,-647.7 -608.9,-762.1 l -4138.6,-1133.2 -63.6,174.9 -198.9,546.3 3898.7,1792.2 c 188.1,78.8 385.5,90.7 561.1,47.4 233.3,-57.6 427.9,-212.8 510.2,-439 27.1,-74.3 40,-150.7 40,-226.5"
         style="fill:#5551e3;fill-opacity:1;fill-rule:nonzero;stroke:none"
         id="path278" />
      <path
         d="m 22685.7,5979.7 -15.1,31.2 c 7.6,3.7 775.5,373.1 1636.3,714.9 505.8,200.9 944.3,353.1 1303.3,452.5 450.8,124.8 778.1,166.2 972.7,123.1 l -7.5,-33.9 c -340.4,75.4 -1120.4,-123.1 -2255.7,-573.9 -859.6,-341.4 -1626.4,-710.3 -1634,-713.9"
         style="fill:#3483ff;fill-opacity:1;fill-rule:nonzero;stroke:none"
         id="path280" />
      <path
         d="m 895.828,11324.3 c -199.09,-608.6 777.012,-1642.8 1911.952,-1915.6 454.3,-109.3 1066.1,-465.8 1636.71,-854.1 h 0.08 c 329.45,-224.4 645.1,-459.2 908.66,-663.2 l 0.08,-0.1 c 51.06,-39.4 100,-77.7 146.81,-114.6 71.14,-55.9 137.03,-108.5 196.94,-156.7 46.21,-37.3 88.82,-72 127.27,-103.5 39.67,-32.3 74.97,-61.5 105.46,-86.8 l 0.1,-0.2 1.22,-0.8 c 23.51,-19.5 44.01,-36.6 61.35,-51.2 10.87,-9.2 20.51,-17.3 28.83,-24.3 1.27,0.7 2.61,1.6 3.88,2.3 3.68,2.3 7.55,4.7 11.64,7.2 l 1.81,1.1 c 5.43,3.2 11.05,6.6 16.96,10 6.24,3.7 12.82,7.5 19.66,11.5 8.73,5 17.88,10.2 27.7,15.6 22.33,12.5 47.61,26.1 75.68,40.7 4.13,2.1 8.25,4.3 12.58,6.4 53.89,27.8 118.17,59.1 194.46,93.8 -4.95,11.6 -15.55,36.3 -31.81,72.5 -15.23,33.9 -35.4,77.8 -60.29,130.5 -5.53,11.8 -11.16,23.8 -17.19,36.4 h -0.08 c -6.23,13.1 -12.71,26.5 -19.39,40.5 -7.8,15.9 -15.79,32.4 -24.2,49.4 -15.69,32.1 -32.56,66 -50.62,101.7 -6.58,13 -13.25,26.2 -20.15,39.6 -63.6,124.5 -140.09,268.3 -229.1,425.5 -90.89,160.2 -194.76,334.2 -311.18,515.7 -139.96,217.9 -297.99,446.5 -473.3,674.6 -134.86,175.5 -279.91,350.4 -434.87,520.2 -247.26,271 -519.77,528.1 -815.88,751 -317.25,238.6 -619.78,423.2 -902.48,560.9 h -0.28 l -0.02,0.1 c -1128.14,549 -1939.69,350.4 -2098.992,-136.1"
         style="fill:#d7d4fe;fill-opacity:1;fill-rule:nonzero;stroke:none"
         id="path282" />
      <path
         d="m 2994.84,11460.3 c 1179.92,-887.7 1940.79,-1989.1 2391.31,-2816 106.46,-195.4 195.58,-375.3 268.79,-533.6 69.44,-150 124.63,-280.6 166.74,-386 8.12,-20.5 15.85,-39.9 23.06,-58.5 1.44,-3.6 2.79,-7.1 4.15,-10.7 11.86,-30.7 22.37,-58.6 31.5,-83.5 5.97,-16.1 11.39,-31 16.24,-44.5 20.78,-58.4 31.45,-92.1 33.03,-97.1 l 0.13,-0.7 0.1,-0.2 1.22,-0.8 62.96,-49 31.1,-24.2 c 3.68,2.3 7.55,4.7 11.64,7.2 l 1.81,1.1 c 5.43,3.2 11.05,6.6 16.96,10 6.24,3.7 12.82,7.5 19.66,11.5 8.73,5 17.88,10.2 27.7,15.6 22.33,12.5 47.61,26.1 75.68,40.7 4.13,2.1 8.25,4.3 12.58,6.4 53.89,27.8 118.17,59.1 194.46,93.8 -4.95,11.6 -15.55,36.3 -31.81,72.5 -15.23,33.9 -35.4,77.8 -60.29,130.5 -5.53,11.8 -11.16,23.8 -17.19,36.4 h -0.08 c -6.23,13.1 -12.71,26.5 -19.39,40.5 -7.8,15.9 -15.79,32.4 -24.2,49.4 -15.69,32.1 -32.56,66 -50.62,101.7 -6.58,13 -13.25,26.2 -20.15,39.6 -63.6,124.5 -140.09,268.3 -229.1,425.5 -90.89,160.2 -194.76,334.2 -311.18,515.7 -139.96,217.9 -297.99,446.5 -473.3,674.6 -134.86,175.5 -279.91,350.4 -434.87,520.2 -247.26,271 -519.77,528.1 -815.88,751 -317.25,238.6 -619.78,423.2 -902.48,560.9 h -0.28"
         style="fill:#c4c3ed;fill-opacity:1;fill-rule:nonzero;stroke:none"
         id="path284" />
      <path
         d="m 896.129,11324.2 c 23.715,-5.4 1545.351,-354.5 2172.721,-717.9 668.07,-387.2 1225.24,-884.7 1648.22,-1333.9 389.45,-413.6 705.12,-826.4 937.87,-1161.7 72.67,-104.8 137.26,-202 193.52,-289.1 10.7,-16.5 20.92,-32.6 30.91,-48.4 14.54,-22.8 28.44,-44.9 41.68,-66.1 18.83,-30.1 36.37,-58.6 52.57,-85.2 16.21,-26.7 31.17,-51.5 44.79,-74.4 8.24,-13.9 16.03,-27 23.19,-39.4 7.3,-12.4 14.09,-24 20.31,-34.9 8.7,-15 16.48,-28.5 23.25,-40.6 6.91,-12.1 12.82,-22.8 17.78,-31.7 22.33,12.5 47.61,26.1 75.68,40.7 4.13,2.1 8.25,4.3 12.58,6.4 -2.37,4.4 -5.06,9.2 -7.91,14.2 -13.44,23.9 -31.61,55.9 -54.57,95.1 -1.8,3 -3.61,6.2 -5.42,9.3 -2.82,4.6 -5.59,9.5 -8.49,14.3 -15.71,26.6 -33.26,56.1 -52.78,88 -14.33,23.5 -29.66,48.6 -45.99,74.9 -2.11,3.4 -4.32,6.9 -6.52,10.4 -16.64,26.7 -34.33,54.7 -52.94,83.9 -47.57,74.5 -101.47,156.8 -161.71,245.4 -114.2,167.9 -250.87,358.3 -408.72,560.8 -173.2,221.9 -371.95,458.3 -594.54,694.8 -531.44,564.8 -1093.36,1020.9 -1670.16,1355.4 -716.16,415.5 -2198.872,626 -2225.321,629.7"
         style="fill:#e9e7fd;fill-opacity:1;fill-rule:nonzero;stroke:none"
         id="path286" />
      <path
         d="m 8966.43,5383.2 c 14.5,-251.3 -4.53,-494.3 -72.98,-696.7 l 0.02,-0.3 -0.1,-0.1 c -89.68,-264.8 -264.22,-460.1 -559.54,-513.5 -842.48,-64.4 -1482.23,-19.5 -1828.42,1325.7 -264.61,1028 -967.57,2004.9 -1071.1,2155.8 -2.81,10 -4.26,14.5 -4.62,15.8 -4.53,14.3 -12.94,38.5 -27.4,73.8 l -0.23,0.6 c -0.59,1.4 -1.17,2.9 -1.75,4.2 -1.63,4.1 -3.38,8.3 -5.24,12.7 l -0.81,1.9 c 7.89,4 16.85,8.3 26.9,13 4,1.8 8.2,3.8 12.49,5.7 2.15,0.9 4.39,2 6.64,3 8,3.7 16.5,7.4 25.49,11.3 3.61,1.6 7.23,3.1 10.94,4.7 9,3.9 18.48,7.9 28.47,12 l 1.07,0.5 c 1.96,0.7 3.92,1.5 5.87,2.3 8.32,3.4 16.94,6.8 25.85,10.3 12.44,4.8 25.38,9.8 38.91,14.8 18.05,6.6 37.09,13.4 57.04,20.2 3.04,1.1 6.18,2.2 9.43,3.1 10.32,3.5 20.93,7.1 31.85,10.6 9.14,2.9 18.49,5.9 28.03,8.8 5.23,1.5 10.44,3.1 15.76,4.7 3.64,1.2 7.38,2.3 11.12,3.4 18.32,5.4 37.24,10.8 56.68,16 1.28,0.3 2.46,0.6 3.74,1 6.02,1.5 12.14,3.2 18.36,4.8 4.93,1.3 9.96,2.6 15.1,3.8 6.62,1.7 13.23,3.4 20.04,5.1 h 0.3 c 6.71,1.7 13.54,3.3 20.45,4.9 4.25,1.1 8.6,2.1 13.05,3.1 7.02,1.6 14.04,3.2 21.26,4.7 3.06,0.8 6.33,1.5 9.5,2 6.22,1.5 12.56,2.9 18.9,4.1 4.84,1.1 9.89,2.1 14.94,3.1 7.43,1.5 14.76,3 22.29,4.4 12.38,2.4 24.97,4.8 37.76,7 6.35,1.1 12.79,2.2 19.24,3.3 6.54,1.2 13.19,2.3 19.94,3.4 18.56,2.8 37.33,5.6 56.41,8.3 4.97,0.7 10.04,1.4 15.11,2 5.57,0.7 11.24,1.4 16.81,2.2 25.45,3.1 51.44,5.9 77.94,8.4 5.58,0.5 11.26,1 16.84,1.5 9.37,0.8 18.84,1.5 28.42,2.2 5.09,0.4 10.27,0.8 15.46,1.1 76.24,5.1 155.97,6.8 238.66,4.1 30.71,-1 61.96,-2.6 93.44,-4.9 36.21,-2.6 72.97,-6.1 110.29,-10.5 31.67,-3.8 63.68,-8.3 95.93,-13.4 183.72,-29.8 377.54,-83.4 576.77,-170.3 h 0.1 l 0.31,-0.2 c 0,0 370.34,-167 727.97,-473 192.19,-164.3 380.69,-369 506.05,-609.4 25.68,-49.2 51.15,-103.4 75.85,-161.8 2.54,-5.8 4.98,-11.7 7.43,-17.7 1.74,-4.1 3.49,-8.4 5.24,-12.6 1.97,-4.7 3.84,-9.3 5.72,-14.1 1.28,-3 2.56,-6.1 3.74,-9.3 9.82,-24.2 19.37,-49.1 28.86,-74.7 4.74,-12.8 9.39,-25.6 14.05,-38.7 2.27,-6.5 4.66,-13 6.94,-19.6 4.43,-12.6 8.77,-25.3 13.11,-38 16.57,-49.4 32.54,-100.3 47.68,-152.6 2.37,-8.3 4.76,-16.7 7.15,-25.1 9.19,-32.5 18.11,-65.6 26.56,-99.1 1.15,-4.3 2.2,-8.7 3.25,-13 3.51,-13.9 6.9,-27.7 10.22,-41.7 4.49,-18.8 8.89,-37.8 13.09,-56.8 6.89,-30.7 13.39,-61.8 19.6,-93 4.96,-25.2 9.62,-50.5 14.1,-76 6.7,-38.1 12.92,-76.4 18.35,-114.8 1.64,-11.2 3.19,-22.4 4.63,-33.5 0.36,-2.7 0.72,-5.5 1.08,-8.3 1.56,-11.3 2.9,-22.5 4.26,-33.9 1.3,-10.3 2.5,-20.7 3.6,-31.1 0.62,-5.5 1.23,-10.9 1.74,-16.3 1.08,-10 2.16,-20.1 3.14,-30 l 0.03,-0.6 c 1.24,-12.8 2.38,-25.6 3.42,-38.4 0.88,-10 1.67,-20.2 2.35,-30.4 0.25,-2.6 0.4,-5.2 0.56,-7.9 0.93,-12.6 1.77,-25.4 2.5,-38.1"
         style="fill:#d7d4fe;fill-opacity:1;fill-rule:nonzero;stroke:none"
         id="path288" />
      <path
         d="m 8893.45,4686.5 c 0.5,19.2 14.74,674.8 -287.01,1375.2 -305.47,709.1 -935.01,1463.9 -2231.26,1649.7 -72.93,10.5 -147.95,19.1 -225.07,25.8 -104.3,9.1 -212.5,14.7 -324.89,16.5 -52.54,1 -105.94,1 -160.28,0.2 -48.24,-0.7 -97.24,-2 -147,-4.2 h -0.2 c -25.79,-1 -51.86,-2.3 -78.12,-3.7 -12.38,-0.7 -24.85,-1.4 -37.33,-2.3 l -0.23,0.6 c -0.59,1.4 -1.17,2.9 -1.75,4.2 -1.63,4.1 -3.38,8.3 -5.24,12.7 l -0.81,1.9 c 7.89,4 16.85,8.3 26.9,13 4,1.8 8.2,3.8 12.49,5.7 2.15,0.9 4.39,2 6.64,3 8,3.7 16.5,7.4 25.49,11.3 3.61,1.6 7.23,3.1 10.94,4.7 9,3.9 18.48,7.9 28.47,12 l 1.07,0.5 c 1.96,0.7 3.92,1.5 5.87,2.3 8.32,3.4 16.94,6.8 25.85,10.3 12.44,4.8 25.38,9.8 38.91,14.8 18.05,6.6 37.09,13.4 57.04,20.2 3.04,1.1 6.18,2.2 9.43,3.1 10.32,3.5 20.93,7.1 31.85,10.6 9.14,2.9 18.49,5.9 28.03,8.8 5.23,1.5 10.44,3.1 15.76,4.7 3.64,1.2 7.38,2.3 11.12,3.4 18.32,5.4 37.24,10.8 56.68,16 1.28,0.3 2.46,0.6 3.74,1 6.02,1.5 12.14,3.2 18.36,4.8 4.93,1.3 9.96,2.6 15.1,3.8 6.62,1.7 13.23,3.4 20.04,5.1 h 0.3 c 6.71,1.7 13.54,3.3 20.45,4.9 4.25,1.1 8.6,2.1 13.05,3.1 7.02,1.6 14.04,3.2 21.26,4.7 3.06,0.8 6.33,1.5 9.5,2 6.22,1.5 12.56,2.9 18.9,4.1 4.84,1.1 9.89,2.1 14.94,3.1 7.43,1.5 14.76,3 22.29,4.4 12.38,2.4 24.97,4.8 37.76,7 6.35,1.1 12.79,2.2 19.24,3.3 6.54,1.2 13.19,2.3 19.94,3.4 18.56,2.9 37.33,5.7 56.41,8.3 4.97,0.7 10.04,1.4 15.11,2 5.57,0.7 11.24,1.4 16.81,2.2 25.45,3.1 51.44,5.9 77.94,8.4 5.58,0.5 11.26,1 16.84,1.5 9.37,0.8 18.84,1.5 28.42,2.2 5.09,0.4 10.27,0.8 15.46,1.1 76.24,5.1 155.97,6.8 238.66,4.1 30.71,-1 61.85,-2.6 93.44,-4.9 36.21,-2.6 72.97,-6.1 110.29,-10.5 31.67,-3.8 63.58,-8.3 95.93,-13.4 183.72,-29.8 377.54,-83.4 576.77,-170.3 h 0.1 l 0.31,-0.2 c 0,0 370.34,-167 727.97,-473 192.19,-164.3 380.69,-369 506.05,-609.4 25.68,-49.2 51.15,-103.4 75.85,-161.8 2.54,-5.8 4.98,-11.7 7.43,-17.7 1.74,-4.1 3.49,-8.4 5.24,-12.6 1.97,-4.7 3.84,-9.3 5.72,-14.1 1.28,-3 2.56,-6.1 3.74,-9.3 9.82,-24.2 19.37,-49.1 28.86,-74.7 4.74,-12.8 9.39,-25.6 14.05,-38.7 2.27,-6.5 4.66,-13 6.94,-19.6 4.43,-12.6 8.77,-25.3 13.11,-38 16.57,-49.4 32.54,-100.3 47.68,-152.6 2.37,-8.3 4.76,-16.7 7.15,-25.1 9.19,-32.5 18.11,-65.6 26.56,-99.1 1.15,-4.3 2.2,-8.7 3.25,-13 3.51,-13.9 6.9,-27.7 10.22,-41.7 4.49,-18.8 8.89,-37.8 13.09,-56.8 6.89,-30.7 13.39,-61.8 19.6,-93 4.96,-25.2 9.73,-50.6 14.1,-76 6.8,-38.1 12.92,-76.4 18.35,-114.8 1.64,-11.2 3.19,-22.4 4.63,-33.5 0.36,-2.7 0.72,-5.5 1.08,-8.3 1.56,-11.3 2.9,-22.5 4.26,-33.9 1.3,-10.3 2.5,-20.7 3.6,-31.1 0.62,-5.5 1.23,-10.9 1.74,-16.3 1.08,-10 2.16,-20.1 3.14,-30 l 0.03,-0.6 c 1.24,-12.8 2.38,-25.6 3.42,-38.4 0.88,-10 1.67,-20.2 2.35,-30.4 0.25,-2.6 0.4,-5.2 0.56,-7.9 0.93,-12.6 1.77,-25.4 2.5,-38.1 14.5,-251.3 -4.53,-494.3 -72.98,-696.7"
         style="fill:#c4c3ed;fill-opacity:1;fill-rule:nonzero;stroke:none"
         id="path290" />
      <path
         d="m 8333.86,4172.6 c 0,0 -436.83,1398.8 -693.27,1888.9 -264.1,504.6 -551.62,867.9 -798.28,1120.4 -523.86,536.4 -976.53,699.5 -981.05,701.1 l 33.16,94.3 c 19.33,-6.7 479.39,-172.6 1019.43,-725.5 315.85,-323.4 593.21,-713 824.38,-1157.9 288.34,-554.9 595.63,-1921.3 595.63,-1921.3"
         style="fill:#e9e7fd;fill-opacity:1;fill-rule:nonzero;stroke:none"
         id="path292" />
      <path
         d="m 11882.5,7955.4 c -195.6,-609.7 -1592.8,-875 -2672.07,-430.5 -432.07,177.9 -1136.68,247.9 -1826.58,268 h -0.1 c -398.42,11.5 -791.78,6.4 -1124.92,-4.3 h -0.1 c -64.49,-2 -126.56,-4.3 -186.12,-6.8 -90.44,-3.6 -174.66,-7.5 -251.45,-11.5 -59.32,-3.1 -114.14,-6.1 -163.75,-9.1 -51.12,-3 -96.82,-5.9 -136.34,-8.5 l -0.19,-0.1 h -1.5 c -30.44,-1.9 -57.08,-3.8 -79.72,-5.5 -14.17,-1 -26.74,-1.9 -37.6,-2.8 -0.59,1.4 -1.17,2.9 -1.75,4.2 -1.63,4.1 -3.38,8.3 -5.24,12.7 l -0.81,1.9 c -2.54,5.8 -5.09,11.9 -7.85,18.1 -2.89,6.6 -5.99,13.6 -9.22,20.8 -4.13,9.2 -8.49,18.7 -13.28,28.9 -10.76,23.2 -23.27,49 -37.43,77.4 -2.13,4 -4.18,8.2 -6.43,12.5 -27.36,54.1 -61.05,117.2 -102.52,190 10.84,6.6 33.89,20.3 68.3,40.1 32.19,18.5 74.3,42.3 125.36,70.4 11.36,6.2 23,12.7 35.25,19.3 h 0.09 c 12.72,7 25.84,14 39.44,21.4 15.64,8.4 31.77,17 48.59,25.9 31.48,16.7 65.03,34.3 100.63,52.7 12.94,6.6 26.07,13.4 39.5,20.2 124.54,63.6 270.86,135.2 435.1,210.3 167.57,76.5 353.77,156.5 554.47,235.2 241.16,94.5 503.26,187 779,269 212.12,63 432.22,119.7 657.31,166.3 359.2,74.5 730.72,123 1101.24,129.9 396.94,7.3 750.24,-20.6 1059.99,-74.9 l 0.2,-0.1 0.1,0.1 c 1235.7,-216.9 1776.6,-853.7 1620.4,-1341.2"
         style="fill:#d7d4fe;fill-opacity:1;fill-rule:nonzero;stroke:none"
         id="path294" />
      <path
         d="m 10262,9296.5 c -1476.29,-27.2 -2738.49,-473.1 -3588.33,-878.8 -200.81,-95.8 -378.52,-189.3 -530.66,-274.6 -144.19,-80.7 -265.46,-154.2 -361.42,-214.9 -18.55,-11.8 -36.23,-23 -52.94,-33.8 -3.28,-2.1 -6.47,-4.2 -9.65,-6.3 -27.62,-17.9 -52.51,-34.3 -74.49,-49.1 -14.28,-9.6 -27.39,-18.4 -39.24,-26.5 -51.06,-35.1 -79.5,-56.2 -83.72,-59.4 l -0.48,-0.4 -0.19,-0.1 h -1.5 l -79.68,-2.7 -39.39,-1.4 c -1.63,4.1 -3.38,8.3 -5.24,12.7 l -0.81,1.9 c -2.54,5.8 -5.09,11.9 -7.85,18.1 -2.89,6.6 -5.99,13.6 -9.22,20.8 -4.13,9.2 -8.49,18.7 -13.28,28.9 -10.76,23.2 -23.27,49 -37.43,77.4 -2.13,4 -4.18,8.2 -6.43,12.5 -27.36,54.1 -61.05,117.2 -102.52,190 10.84,6.6 33.89,20.3 68.3,40.1 32.19,18.5 74.3,42.3 125.36,70.4 11.36,6.2 23,12.7 35.25,19.3 h 0.09 c 12.72,7 25.84,14 39.44,21.4 15.64,8.4 31.77,17 48.59,25.9 31.48,16.7 65.03,34.3 100.63,52.7 12.94,6.6 26.07,13.4 39.5,20.2 124.54,63.6 270.86,135.2 435.1,210.3 167.57,76.5 353.77,156.5 554.47,235.2 241.16,94.5 503.26,187 779,269 212.12,63 432.22,119.7 657.31,166.3 359.2,74.5 730.72,123 1101.24,129.9 396.94,7.3 750.24,-20.6 1059.99,-74.9 l 0.2,-0.1"
         style="fill:#c4c3ed;fill-opacity:1;fill-rule:nonzero;stroke:none"
         id="path296" />
      <path
         d="m 11882.2,7955.5 c -22.4,9.5 -1459.6,619.1 -2180.97,692.6 -768.18,78.1 -1511.23,1.9 -2117.26,-113.9 -557.98,-106.7 -1055.81,-256 -1440.96,-391.1 -120.27,-42.2 -229.59,-83.1 -326.29,-120.7 -18.32,-7.1 -36.04,-14.1 -53.38,-21 -25.16,-10 -49.34,-19.7 -72.53,-29.1 -32.89,-13.4 -63.81,-26.2 -92.56,-38.2 -28.75,-12.1 -55.44,-23.5 -79.88,-34 -14.85,-6.5 -28.82,-12.5 -41.91,-18.3 -13.19,-5.8 -25.49,-11.2 -36.92,-16.4 -15.82,-7 -30.07,-13.5 -42.66,-19.3 -12.69,-5.7 -23.71,-10.9 -32.97,-15.2 -10.76,23.2 -23.27,49 -37.43,77.4 -2.13,4 -4.18,8.2 -6.43,12.5 4.49,2.2 9.46,4.5 14.73,6.9 24.88,11.4 58.36,26.7 99.97,45 3.23,1.4 6.55,2.9 9.86,4.4 4.99,2.1 10.07,4.4 15.25,6.6 28.34,12.3 59.81,25.9 94.33,40.3 25.43,10.6 52.53,21.9 81.2,33.7 3.72,1.5 7.53,3 11.35,4.6 29.17,11.9 59.91,24.2 92.13,36.9 82.17,32.4 174.1,67.5 274.87,103.9 190.94,69.1 413.34,143.2 659.93,214.6 270.44,78.2 570.02,153.1 889.04,214.2 761.66,145.8 1484.26,185.7 2147.64,118.5 823.75,-83.4 2148.25,-782.4 2171.85,-794.9"
         style="fill:#e9e7fd;fill-opacity:1;fill-rule:nonzero;stroke:none"
         id="path298" />
      <path
         d="m 10411.2,12028.9 c -284.4,-901.6 -2154.54,-1635.5 -2771.38,-2277.4 -229.8,-239.2 -600.66,-594.1 -975.56,-945.2 -225.31,-211.1 -452,-420.8 -650.52,-603.2 -69.53,-64 -135.65,-124.6 -197.02,-180.7 -16.27,-14.9 -32.25,-29.5 -47.76,-43.6 -19.31,-17.8 -38.06,-34.9 -56.23,-51.5 -13.13,-12 -25.98,-23.7 -38.54,-35.1 -10.56,-9.7 -20.84,-19 -30.83,-28.2 -2.57,-2.3 -5.14,-4.6 -7.61,-6.9 -13.62,-12.3 -26.75,-24.3 -39.4,-35.8 -27.31,-25 -52.34,-47.7 -74.8,-68.2 l -0.48,-0.4 -0.19,-0.1 c -1.05,-1 -1.91,-1.7 -2.94,-2.9 h -0.2 c -33.22,-30.1 -60.73,-55.1 -81.49,-73.8 -2.28,-2.1 -4.46,-4.2 -6.56,-6 -4.53,14.3 -12.94,38.5 -27.4,73.8 l -0.23,0.6 c -0.59,1.4 -1.17,2.9 -1.75,4.2 -1.63,4.1 -3.38,8.3 -5.24,12.7 l -0.81,1.9 c -2.54,5.8 -5.09,11.9 -7.85,18.1 -2.89,6.6 -5.99,13.6 -9.22,20.8 -4.13,9.2 -8.49,18.7 -13.28,28.9 -10.76,23.2 -23.27,49 -37.43,77.4 -2.13,4 -4.18,8.2 -6.43,12.5 -27.36,54.1 -61.05,117.2 -102.52,190 -2.71,-1.5 -4.64,-2.8 -5.81,-3.4 l -0.77,-0.6 -0.29,-0.2 c 0.26,0.7 1.59,3.8 3.97,9.4 5.67,12.9 17.27,39.2 34.2,77.3 24.22,54.2 59.67,132.4 105.02,230 6.33,13.7 12.85,27.4 19.63,41.8 l -0.01,0.2 c 10.88,23.3 22.2,47.4 34.07,72.6 42.05,88.7 90.26,189 143.86,298.2 455.95,926.9 1312.01,2503.7 2214.22,3315.8 872.8,785.2 1917.48,1154.2 2414.88,874.6 3.2,-1.9 6.5,-3.7 9.7,-5.7 26,-15.2 50.5,-32.3 73.4,-51.4 28.5,-23.5 54.1,-49.9 77.2,-79.3 138,-176.3 176.3,-458.7 70.4,-861.2"
         style="fill:#d7d4fe;fill-opacity:1;fill-rule:nonzero;stroke:none"
         id="path300" />
      <path
         d="m 10411.2,12028.9 c -284.4,-901.6 -2154.54,-1635.5 -2771.38,-2277.4 -229.8,-239.2 -600.66,-594.1 -975.56,-945.2 -225.31,-211.1 -452,-420.8 -650.52,-603.2 -69.53,-64 -135.65,-124.6 -197.02,-180.7 -16.27,-14.9 -32.25,-29.5 -47.76,-43.6 -19.31,-17.8 -38.06,-34.9 -56.23,-51.5 -13.13,-12 -25.98,-23.7 -38.54,-35.1 -15.5,-7.3 -30.62,-14.4 -45.15,-21.3 -19.6,-9.2 -38.32,-18.1 -56.07,-26.3 -24.09,-11.4 -46.32,-21.8 -66.71,-31.3 l -1.07,-0.5 c -24.38,-11.5 -46.03,-21.7 -64.96,-30.5 -17.56,-8.1 -32.57,-15.2 -45.16,-21.1 l -0.81,1.9 c -2.54,5.8 -5.09,11.9 -7.85,18.1 14.01,15.7 31.98,35.9 53.63,60 11.1,12.5 23.33,26.1 36.42,40.6 9.13,10.2 18.63,20.8 28.71,32 20.42,22.7 42.74,47.4 66.84,73.9 19.96,22.1 41.16,45.4 63.38,70 2.93,3.1 5.84,6.4 8.75,9.7 25.54,27.8 52.39,57.3 80.66,88.1 109.77,120 239.87,260.9 384.99,415.6 807.07,860.4 2079.18,2149.9 2910.76,2665.3 1045.65,648.3 1216.15,1446.7 1243.05,1733 28.5,-23.5 54.1,-49.9 77.2,-79.3 138,-176.3 176.3,-458.7 70.4,-861.2"
         style="fill:#c4c3ed;fill-opacity:1;fill-rule:nonzero;stroke:none"
         id="path302" />
      <path
         d="m 10268.5,13078.4 -0.5,-0.3 c -7.9,-6.2 -34.9,-25.9 -77.8,-57.3 -318.74,-232.8 -1517.64,-1107.3 -2332.96,-1835.1 -494.01,-441 -802.8,-788.5 -895.27,-894 -161.36,-184.2 -457.46,-536.3 -778.3,-1018.6 -159.83,-240.2 -338.33,-531.7 -517.64,-873.4 -10.39,-19.5 -20.67,-39.2 -30.84,-59.1 -21.36,-41.2 -42.68,-83.2 -63.85,-125.9 -18.6,-37.2 -37.15,-74.9 -55.58,-113.1 -18.7,-38.8 -37.36,-78.1 -55.9,-117.9 -2.41,-5.1 -4.83,-10.1 -7.13,-15.3 -5.26,-11.3 -10.61,-22.7 -15.85,-34.2 -13.35,-29.1 -26.68,-58.4 -40,-88.1 -6.57,-14.6 -13.13,-29.3 -19.69,-44.1 -4.13,9.2 -8.49,18.7 -13.28,28.9 -10.76,23.2 -23.27,49 -37.43,77.4 2.65,6.3 5.47,12.8 8.3,19.4 15.38,35.5 32.02,73.5 49.94,113.6 11.97,26.9 24.49,54.6 37.56,83.3 12.62,27.7 25.7,56.3 39.43,85.7 7.93,16.9 16.05,34.2 24.26,51.7 9.82,20.7 19.73,41.6 30.02,63 11.89,24.8 24.15,50.1 36.78,75.9 21.61,44 47.57,93.9 77.46,148.8 111.12,204.2 275.88,476.9 465.4,771.8 293.38,456.5 537.54,769.7 806.44,1065.7 140.14,154.3 434.57,469.5 895.26,878.5 1031.63,916 2080.18,1577.2 2383.17,1760.8 55.6,33.5 86.5,51.4 88,51.9"
         style="fill:#e9e7fd;fill-opacity:1;fill-rule:nonzero;stroke:none"
         id="path304" />
      <path
         d="m 27785.1,14675.4 c -137.2,-363.7 -658.9,-853.7 -1022.6,-716.4 -363.7,137.2 -431.6,849.8 -294.3,1213.4 137.2,363.7 543.3,547.2 907,410 363.6,-137.3 547.2,-543.3 409.9,-907"
         style="fill:#d7d4fe;fill-opacity:1;fill-rule:nonzero;stroke:none"
         id="path306" />
      <path
         d="m 27664.4,15378.2 c 17.2,-114.9 6.1,-235.6 -37.8,-352 -137.3,-363.7 -659,-853.7 -1022.7,-716.4 -64.6,24.4 -119.9,66.9 -166.3,122.5 50.2,-220.4 155.4,-409.3 324.9,-473.3 363.7,-137.3 885.4,352.7 1022.6,716.4 93.3,247.3 38.4,514.1 -120.7,702.8"
         style="fill:#01cdff;fill-opacity:1;fill-rule:nonzero;stroke:none"
         id="path308" />
      <path
         d="m 26513,15073.3 c 137.3,363.6 543.3,547.2 907,409.9 163.5,-61.7 290.6,-177.8 368.5,-319.9 -67.6,186.6 -213.2,343.6 -413.3,419.1 -363.7,137.2 -769.8,-46.3 -907,-410 -99.2,-262.7 -91.2,-707.7 58,-986.1 -104.8,276.5 -101.2,653.6 -13.2,887"
         style="fill:#d7d4fe;fill-opacity:1;fill-rule:nonzero;stroke:none"
         id="path310" />
      <path
         d="m 27205.9,14464 -86.6,32.7 -28.7,10.8 10.9,28.8 32.6,86.5 c 24,63.5 95.2,95.7 158.8,71.7 63.5,-24 95.7,-95.2 71.7,-158.7 -23.9,-63.6 -95.2,-95.8 -158.7,-71.8 z m -356.1,134.4 -86.5,32.6 c -63.5,24 -95.7,95.2 -71.7,158.8 23.9,63.5 95.2,95.7 158.7,71.7 63.6,-23.9 95.8,-95.2 71.8,-158.7 l -32.6,-86.4 -10.9,-28.9 z m 453.9,124.9 c -79.4,30 -168.4,-10.2 -198.4,-89.7 l -43.5,-115.2 -154.4,58.3 43.5,115.2 c 30,79.4 -10.3,168.5 -89.7,198.5 -79.5,29.9 -168.5,-10.3 -198.4,-89.7 -30,-79.5 10.2,-168.5 89.7,-198.5 l 115.2,-43.5 -147,-389.5 28.8,-10.9 147,389.6 154.4,-58.3 -147,-389.6 28.8,-10.8 147,389.5 115.3,-43.5 c 79.4,-30 168.5,10.2 198.4,89.7 30,79.4 -10.2,168.4 -89.7,198.4"
         style="fill:#fefefe;fill-opacity:1;fill-rule:nonzero;stroke:none"
         id="path312" />
      <path
         d="m 26547.2,13388.5 v 0 c -187,70.5 -281.3,279.2 -210.8,466.1 l 147.4,390.6 676.9,-255.5 -147.4,-390.5 c -70.5,-186.9 -279.2,-281.3 -466.1,-210.7"
         style="fill:#3483ff;fill-opacity:1;fill-rule:nonzero;stroke:none"
         id="path314" />
      <path
         d="m 27050.6,13478.2 -822,310.2 c -9.8,3.7 -14.7,14.5 -11,24.3 l 26,68.9 c 3.7,9.7 14.6,14.6 24.3,11 l 822,-310.3 c 9.7,-3.6 14.6,-14.5 10.9,-24.2 l -26,-69 c -3.7,-9.7 -14.5,-14.6 -24.2,-10.9"
         style="fill:#9abaff;fill-opacity:1;fill-rule:nonzero;stroke:none"
         id="path316" />
      <path
         d="m 26401.7,13745 -57.8,21.8 c -18.2,6.8 -27.3,27.1 -20.5,45.3 6.9,18.2 27.2,27.3 45.4,20.5 l 57.7,-21.8 c 18.2,-6.9 27.3,-27.2 20.5,-45.3 -6.9,-18.2 -27.2,-27.4 -45.3,-20.5"
         style="fill:#ecf3fc;fill-opacity:1;fill-rule:nonzero;stroke:none"
         id="path318" />
      <path
         d="m 27121.7,13666.8 -822,310.2 c -9.7,3.7 -14.6,14.5 -10.9,24.2 l 26,69 c 3.7,9.7 14.5,14.6 24.3,10.9 l 821.9,-310.2 c 9.8,-3.7 14.7,-14.5 11,-24.2 l -26,-69 c -3.7,-9.7 -14.6,-14.6 -24.3,-10.9"
         style="fill:#9abaff;fill-opacity:1;fill-rule:nonzero;stroke:none"
         id="path320" />
      <path
         d="m 26472.8,13933.6 -57.7,21.8 c -18.2,6.8 -27.4,27.1 -20.5,45.3 6.9,18.2 27.1,27.3 45.3,20.5 l 57.8,-21.8 c 18.1,-6.9 27.3,-27.2 20.5,-45.4 -6.9,-18.1 -27.2,-27.3 -45.4,-20.4"
         style="fill:#ecf3fc;fill-opacity:1;fill-rule:nonzero;stroke:none"
         id="path322" />
      <path
         d="m 26561.7,15032.4 0.8,1.2 0.8,1.4 c 0.6,1 1.1,2.1 1.6,3.1 1.1,2.1 2.1,4.3 3.1,6.5 l 5.9,13.2 c 4,8.9 8,17.7 12.2,26.6 8.4,17.6 17.4,35 27,52.1 19.2,34.2 41.1,67.1 65.6,98.2 12.3,15.5 25.3,30.6 38.9,45.1 13.7,14.5 28,28.3 43,41.6 15,13.2 30.7,25.8 46.9,37.5 16.4,11.8 33.2,22.8 50.6,33 17.4,10.2 35.1,19.8 53.3,28.7 l 6.9,3.3 c 2.2,1.1 4.6,2.2 6.9,3.2 4.6,2.1 9.1,4.3 13.8,6.3 l 14,5.9 c 4.7,1.9 9.5,3.7 14.2,5.5 19.1,7.1 38.5,13.2 58.3,17.6 5,1.1 9.9,2.3 14.9,3.1 5,0.9 10,1.9 15,2.7 10,1.4 20,2.9 30.1,3.8 l 15.1,1.2 15.1,0.8 7.6,0.3 7.5,0.1 c 5,0 10.1,0.1 15.1,0 20.1,-0.5 40.1,-1.5 60,-4.1 4.9,-0.5 9.9,-1.2 14.8,-1.9 4.9,-0.8 9.9,-1.5 14.8,-2.4 9.8,-1.5 19.5,-3.8 29.2,-5.9 4.9,-1.1 9.7,-2.3 14.5,-3.6 4.8,-1.3 9.6,-2.6 14.4,-4 9.5,-2.8 18.9,-6 28.2,-9.5 l -0.8,-6.1 c -9.9,-1.1 -19.7,-1.8 -29.4,-2.5 -4.9,-0.5 -9.7,-0.9 -14.5,-1.2 -4.9,-0.4 -9.7,-0.7 -14.5,-1.2 l -14.4,-1.2 c -4.8,-0.3 -9.6,-0.7 -14.4,-1.2 -4.7,-0.5 -9.5,-0.9 -14.2,-1.3 -4.8,-0.4 -9.5,-1 -14.2,-1.5 -9.5,-0.8 -18.9,-2.1 -28.2,-3.1 -4.7,-0.5 -9.4,-1.2 -14,-1.8 l -14,-1.8 c -4.6,-0.8 -9.3,-1.4 -13.9,-2.1 l -6.9,-1 -6.9,-1.2 -13.8,-2.3 -13.7,-2.5 -6.9,-1.2 -6.8,-1.5 c -4.5,-0.9 -9,-1.7 -13.6,-2.6 -9,-2.1 -18.1,-3.8 -27,-5.9 -18,-3.9 -35.9,-8.3 -53.8,-13 -17.9,-4.6 -35.6,-10.1 -53,-16.4 -8.8,-3.1 -17.4,-6.6 -26,-10.1 l -12.7,-5.7 c -4.2,-1.9 -8.4,-4 -12.6,-6 -16.6,-8.3 -32.9,-17.4 -48.8,-27.2 -15.9,-9.8 -31.3,-20.5 -46.3,-31.7 -15.1,-11.2 -29.6,-23.2 -43.7,-35.7 -14.2,-12.5 -27.8,-25.7 -40.9,-39.4 -13.1,-13.7 -25.7,-28 -37.8,-42.7 -12.1,-14.8 -23.6,-30.1 -34.7,-45.7 -5.6,-7.8 -11,-15.7 -16.3,-23.7 -5.3,-8.1 -10.5,-16.2 -15.5,-24.4 -5.1,-8.2 -10.1,-16.4 -15.1,-24.8 l -7.5,-12.5 c -1.3,-2.1 -2.6,-4.1 -3.9,-6.2 -0.8,-1.1 -1.4,-2.1 -2.2,-3.2 l -1.2,-1.5 -1.5,-1.7 -4.5,4.2"
         style="fill:#fefefe;fill-opacity:1;fill-rule:nonzero;stroke:none"
         id="path324" />
      <path
         d="m 27513,15878.7 -45.5,17.2 176.2,466.8 45.5,-17.1 -176.2,-466.9"
         style="fill:#f0d89c;fill-opacity:1;fill-rule:nonzero;stroke:none"
         id="path326" />
      <path
         d="m 27943.9,15562.6 -30.8,37.6 386,316.2 30.8,-37.6 -386,-316.2"
         style="fill:#fefefe;fill-opacity:1;fill-rule:nonzero;stroke:none"
         id="path328" />
      <path
         d="m 28159,15073.4 -7.9,47.9 492.4,80.8 7.9,-47.9 -492.4,-80.8"
         style="fill:#fefefe;fill-opacity:1;fill-rule:nonzero;stroke:none"
         id="path330" />
      <path
         d="m 27466,15896.5 45.4,-17.2 176.2,466.8 -45.4,17.2 -176.2,-466.8"
         style="fill:#fefefe;fill-opacity:1;fill-rule:nonzero;stroke:none"
         id="path332" />
      <path
         d="m 26933.7,15943.9 47.9,7.8 -80.8,492.4 -48,-7.9 80.9,-492.3"
         style="fill:#fefefe;fill-opacity:1;fill-rule:nonzero;stroke:none"
         id="path334" />
      <path
         d="m 26449,15718.8 37.5,30.7 -316.2,386 -37.5,-30.7 316.2,-386"
         style="fill:#fefefe;fill-opacity:1;fill-rule:nonzero;stroke:none"
         id="path336" />
    </g>
  </g>
</svg>
