<?xml version="1.0" encoding="UTF-8" standalone="no"?>
<!-- Created with Inkscape (http://www.inkscape.org/) -->

<svg
   version="1.1"
   id="svg2"
   width="2530.6667"
   height="3162.6667"
   viewBox="0 0 2530.6667 3162.6667"
   sodipodi:docname="4952196_39533.eps"
   xmlns:inkscape="http://www.inkscape.org/namespaces/inkscape"
   xmlns:sodipodi="http://sodipodi.sourceforge.net/DTD/sodipodi-0.dtd"
   xmlns="http://www.w3.org/2000/svg"
   xmlns:svg="http://www.w3.org/2000/svg">
  <defs
     id="defs6" />
  <sodipodi:namedview
     id="namedview4"
     pagecolor="#ffffff"
     bordercolor="#000000"
     borderopacity="0.25"
     inkscape:showpageshadow="2"
     inkscape:pageopacity="0.0"
     inkscape:pagecheckerboard="0"
     inkscape:deskcolor="#d1d1d1" />
  <g
     id="g8"
     inkscape:groupmode="layer"
     inkscape:label="ink_ext_XXXXXX"
     transform="matrix(1.3333333,0,0,-1.3333333,0,3162.6667)">
    <g
       id="g10"
       transform="scale(0.1)">
      <path
         d="m 7791.94,16275.9 c 102.51,-270.1 145.33,-517.6 129.93,-812.3 -13.34,-255.2 14.99,-488.8 192.62,-690.9 378.42,-430.4 1483.75,-631.5 1948.41,-262.6 599.7,476.3 60,1367.4 455,1908.6 369.2,505.9 525.8,1125.2 286.1,1719.9 -143.3,355.5 -383,654.2 -424.3,1038.7 -36.2,337.6 -109.2,678.6 -133.5,1016.1 -20.4,282.5 -63.1,460.4 -235.2,705.1 -249.1,354.1 -731.09,521 -1125.46,402.6 -617.2,-185.4 -657.85,-743.7 -731.99,-1280.5 -35.08,-254.2 -61.2,-510 -97.26,-762.9 -29.28,-205.4 -71.09,-403.7 -107.15,-608.9 -51.12,-290.6 -206.18,-549 -275.79,-838.5 -64.71,-269.1 -127.05,-567.5 -99.73,-842.3 23.42,-236 120.6,-443 206.82,-662.4 3.95,-10 7.77,-19.8 11.5,-29.7"
         style="fill:#141e34;fill-opacity:1;fill-rule:nonzero;stroke:none"
         id="path12" />
      <path
         d="m 8183.87,20351.2 c -62.53,-256.4 -69.29,-526.3 -112.91,-786.5 -20.31,-121.1 -45.95,-241.4 -80.01,-359.4 -38.09,-132.1 -93.72,-258 -143.29,-385.9 -49.29,-127.2 -92.03,-257 -142.48,-383.7 -45.27,-113.6 -102.62,-222.5 -158.18,-331.3 -91.89,-180 -216.39,-430.6 -136.13,-635.7 5.75,-14.7 27.88,-13.3 28.31,3.8 2.82,111.9 1.1,215.8 31.7,325.1 31.87,114 85.57,220.9 138.74,326.1 52.52,103.8 110.72,204.6 155.82,312.2 53.04,126.5 95.43,258.1 145.63,385.8 95.97,244.3 160.8,490.7 195.92,750.6 16.57,122.7 28.82,246 43.97,368.9 16.73,135.7 38.41,271.5 48.53,407.9 0.67,9 -13.52,10.7 -15.62,2.1"
         style="fill:#141e34;fill-opacity:1;fill-rule:nonzero;stroke:none"
         id="path14" />
      <path
         d="m 8042.38,16778.9 c -133.58,359.1 -225.41,732 -211.11,1117.7 7.25,195.4 41.67,389 94.33,577.2 25.5,91.1 57.51,180.5 95.24,267.2 36.82,84.7 83.36,167.2 111.46,255.3 4.31,13.6 -13.65,23.2 -23.26,13.6 -65.39,-65.3 -107.91,-152.5 -143.8,-236.4 -37.38,-87.4 -68.17,-177.3 -93.78,-268.7 -53.94,-192.7 -75.84,-392.9 -79.76,-592.6 -7.58,-385.1 48.91,-799.1 245.23,-1135.6 1.67,-2.8 6.66,-0.9 5.45,2.3"
         style="fill:#141e34;fill-opacity:1;fill-rule:nonzero;stroke:none"
         id="path16" />
      <path
         d="m 10536.3,19026.5 c -117.9,322.3 -155.1,663 -204.8,1000.4 -22.9,155.6 -46.7,310.6 -92,461.6 -21.8,72.2 -49.1,142.4 -83,209.7 -33.8,67.3 -73.5,146.2 -140,186 -8.4,5.1 -18.29,-3.2 -16,-12.3 16.8,-68.7 63.2,-128.5 95.5,-190.8 37,-71.4 68.2,-146.2 94.7,-222.1 51.7,-148 83.3,-303.2 107.2,-457.9 51.6,-333.9 94.2,-665.2 233.9,-976.5 1.1,-2.6 5.5,-0.8 4.5,1.9"
         style="fill:#141e34;fill-opacity:1;fill-rule:nonzero;stroke:none"
         id="path18" />
      <path
         d="m 10253.4,19438.4 c -22.8,-87.8 -6.4,-186.1 12.6,-273.2 20.1,-92.1 54.8,-179.9 95.7,-264.6 86.5,-179 204.8,-341 320.7,-501.7 113.6,-157.5 227.7,-317 307.4,-494.9 38.8,-86.5 66.8,-178.8 79,-272.8 12.7,-97.2 2.5,-187.4 -5.8,-284.1 -1.3,-15.4 -3.4,-30.7 -5.8,-46 -1,-6.6 8.7,-12.3 11.9,-5 154.6,362 -70.7,739.8 -272.9,1030.9 -113.8,163.9 -236.1,322.6 -337.1,495.1 -101,172.5 -167,355.3 -185.5,554.8 -1.9,20.9 -3.2,40.8 -6.7,61.5 -1.2,6.9 -11.8,6.3 -13.5,0"
         style="fill:#141e34;fill-opacity:1;fill-rule:nonzero;stroke:none"
         id="path20" />
      <path
         d="m 7682.21,15008.8 c -348.65,190.4 -440.9,-225.3 -544.45,-459.7 -140.67,-318.1 -796.81,-1555.8 -864.92,-1632.6 -68.04,-76.7 -131.88,-170 -244.58,-238 -130.14,-78.6 -225.22,-162 -303.87,-291.5 -29.17,-47.9 -71.93,-145.8 -44.72,-171.3 47.88,-44.9 80.56,-0.9 130.37,78.6 13.62,21.8 73.16,71.8 98.27,117.5 -37.7,-152.4 -246.92,-351.7 -279.06,-539.1 -19.5,-113.7 -0.62,-190.1 125.2,-201.3 154.03,-13.8 161.35,115.2 267.92,186.8 42.93,28.9 137.06,31.1 224.13,176 48.67,81 96.99,184.1 123.79,273.5 34.2,114.1 74.76,269.2 114.11,352.1 39.33,82.9 1035.97,1332.1 1167.6,1627.2 155.95,349.5 170.39,645.3 30.21,721.8"
         style="fill:#f79187;fill-opacity:1;fill-rule:nonzero;stroke:none"
         id="path22" />
      <path
         d="m 8366.15,17765.1 c -576.28,62.3 -567.29,-1017.3 -667.12,-1375.5 -95.24,-341.4 -256.91,-1103.7 -370.34,-1437.6 -70.19,-206.3 -156.17,-328.9 28.16,-478.7 184.33,-149.7 334.81,-42 391.73,88.9 199.07,458 711.56,2148.6 794.9,2572.4 90.53,460.4 -177.33,630.5 -177.33,630.5"
         style="fill:#f79187;fill-opacity:1;fill-rule:nonzero;stroke:none"
         id="path24" />
      <path
         d="m 7855.72,13772.7 c -145.84,-483.7 -358.69,-1711.9 -358.69,-2769.1 0,-1634.3 261.6,-3285.9 288.48,-3537.8 0.24,-1.4 0.55,-2.7 0.79,-4.1 54.06,-519.9 -105.54,-973.8 -94.43,-1855.6 13.24,-1051.4 311.14,-3089.9 311.14,-3089.9 -17.86,-153.7 -311.68,-335.9 -631.26,-522.5 0,0 -170.56,-160.5 -154.98,-196.8 40.69,-94.5 84.38,-88.3 170.36,-78.9 219.44,24.1 405.03,116.8 611.86,163.8 105.56,24 315.14,48.1 382.87,143.6 82.64,116.5 8.91,246.2 -2.28,388.7 0,0 240.11,2316.3 300.43,3204.4 57.61,848.5 -118.44,1137.8 -95.32,1698.7 0.25,2.6 0.52,5.1 0.79,7.7 -0.11,6.8 0.3,17.3 1.04,30.6 0.21,3.7 0.46,7.4 0.65,11.1 23.36,352.8 279.68,2404.4 300.98,2565.6 166.93,1266.2 239,2105.3 239,2105.3 v 1735.2 H 7855.72"
         style="fill:#f79187;fill-opacity:1;fill-rule:nonzero;stroke:none"
         id="path26" />
      <path
         d="m 10900.8,1993.7 c -319.5,186.6 -613.4,368.8 -631.2,522.5 0,0 321.5,2038.3 334.8,3089.9 11.1,881.8 -148.5,1335.7 -94.4,1855.6 0.2,1.4 0.5,2.7 0.7,4.1 26.9,251.9 288.6,1903.5 288.6,3537.8 0,1057.2 -212.9,2285.4 -358.8,2769.1 H 8193.39 l -60.11,-885.1 1035.83,-850.1 c 0,0 72.07,-839.1 239,-2105.3 21.24,-161.2 277.56,-2212.8 300.93,-2565.6 0.24,-3.7 0.49,-7.4 0.71,-11.1 0.78,-13.3 1.14,-23.8 1.03,-30.6 0.33,-2.6 0.49,-5.1 0.82,-7.7 23.07,-560.9 -152.96,-850.2 -95.36,-1698.7 60.31,-888.1 276.77,-3204.4 276.77,-3204.4 -11.16,-142.5 -84.89,-272.2 -2.26,-388.7 67.74,-95.5 277.35,-119.6 382.85,-143.6 206.9,-47 392.4,-139.7 611.9,-163.8 86,-9.4 129.6,-15.6 170.3,78.9 15.6,36.3 -155,196.8 -155,196.8"
         style="fill:#f79187;fill-opacity:1;fill-rule:nonzero;stroke:none"
         id="path28" />
      <path
         d="m 7987.98,2537.9 c -4.19,-119.4 -67.71,-213.8 -616.18,-544.2 -80.32,-48.4 -241.91,-157.9 -250.3,-196.4 -24.65,-112.5 158.76,-120.1 244.74,-110.6 219.47,24 420.22,120.6 627.08,167.7 105.54,23.9 327.81,63.5 405.76,150.8 80.07,89.7 63.6,245 16.61,382.1 -27.37,80 -20.91,174.4 -20.91,174.4 -178.45,-153.8 -406.8,-23.8 -406.8,-23.8"
         style="fill:#162138;fill-opacity:1;fill-rule:nonzero;stroke:none"
         id="path30" />
      <path
         d="m 10278,2537.9 c 4.2,-119.4 67.7,-213.8 616.2,-544.2 80.3,-48.4 241.9,-157.9 250.3,-196.4 24.6,-112.5 -158.8,-120.1 -244.8,-110.6 -219.4,24 -420.2,120.6 -627,167.7 -105.6,23.9 -327.86,63.5 -405.8,150.8 -80.08,89.7 -63.6,245 -16.62,382.1 27.37,80 20.92,174.4 20.92,174.4 178.4,-153.8 406.8,-23.8 406.8,-23.8"
         style="fill:#162138;fill-opacity:1;fill-rule:nonzero;stroke:none"
         id="path32" />
      <path
         d="m 8826.63,21237.8 c -132.97,56.2 -199.18,260.8 -192.89,390.6 8.5,175.1 145.44,298.7 310.27,339.9 114.56,28.5 251.2,40.7 368.44,18.9 102.82,-19.2 251.23,-43.5 323.68,-124.6 55.67,-62.2 61,-181.1 47.96,-258.8 -28.19,-167.7 -169.54,-328.9 -297.47,-431.9 l -559.99,65.9"
         style="fill:#141e34;fill-opacity:1;fill-rule:nonzero;stroke:none"
         id="path34" />
      <path
         d="m 8598.92,21682.1 c 36.92,130 149.09,241.1 267.26,300.1 58.97,29.5 127.58,44.5 193.13,34.5 34.6,-5.3 65.59,-19.7 94.19,-39.4 27.66,-19 46.21,-44.9 78.27,-57.3 9.08,-3.5 16.43,6.7 14.68,14.7 -14.68,67.4 -105.17,103.4 -165.37,117.3 -70.94,16.4 -144.95,-0.1 -209.86,-29.7 -136.97,-62.5 -241.13,-194.5 -273.26,-339.9 l 0.96,-0.3"
         style="fill:#141e34;fill-opacity:1;fill-rule:nonzero;stroke:none"
         id="path36" />
      <path
         d="m 9646.06,21348.2 c 78.79,120.6 125.54,270.7 73.11,410.6 -35.08,93.6 -144.1,202.1 -253.23,183.3 -9.59,-1.7 -10.33,-15.7 -2.62,-20 40,-22.6 85.84,-31.1 125.36,-56.1 46.97,-29.8 79.55,-77.7 99.33,-128.8 24.61,-63.5 29.37,-132 18.31,-198.9 -10.99,-66.4 -43.13,-125.5 -62.08,-189.4 -0.33,-1.1 1.22,-1.7 1.82,-0.7"
         style="fill:#141e34;fill-opacity:1;fill-rule:nonzero;stroke:none"
         id="path38" />
      <path
         d="m 9776.07,21678.4 c -15.96,141.8 -88.91,291.6 -232.6,339.7 -63.71,21.4 -135.18,23.6 -201.45,17.4 -51.7,-4.9 -119.44,-15.3 -151.58,-60.6 -3.22,-4.6 2.12,-11.3 7.3,-9.5 48.4,17.3 92.53,35.8 144.28,41.8 60.85,7.1 123.8,2 182.87,-13.8 131.81,-35.1 217.61,-192.7 250.21,-315.1 l 0.97,0.1"
         style="fill:#141e34;fill-opacity:1;fill-rule:nonzero;stroke:none"
         id="path40" />
      <path
         d="m 9841.79,19585 c -126.51,-279.7 -191.61,-1525.9 -173.56,-1795.8 -155.59,-266 -625.38,-208.3 -661.91,-152.3 -29.74,45.8 249.6,1036.2 59.98,1305.5 -162.05,230.2 -244.22,323.2 -124.77,441.7 214.81,213 507,276.8 784.04,346.1 l 116.22,-145.2"
         style="fill:#f79187;fill-opacity:1;fill-rule:nonzero;stroke:none"
         id="path42" />
      <path
         d="m 10188.8,17934.6 c 347.4,-37.4 549.8,-93 595.1,-228.1 51.2,-152.6 -470.4,-1678.2 -632.9,-2518.1 -99.4,-513.8 302.6,-1248.5 293.2,-1334.7 -14,-128.3 -1779.03,-771.1 -2588.32,0 -79.19,75.4 417.15,1176.3 421.64,1461.4 10.68,678.4 -309.72,453.3 -388.57,972 -92.96,611.5 318.85,1386.7 379.18,1439.7 0,0 140.31,77.2 232.1,94.1 182.02,33.4 156.33,-198.8 337.18,-246.5 279.33,-73.5 561.42,-126.7 851.2,-127.8 l 500.19,488"
         style="fill:#fddfdb;fill-opacity:1;fill-rule:nonzero;stroke:none"
         id="path44" />
      <path
         d="m 10444.1,13853.3 c 0,0 0,0 0,0 0,0 0,0 0,0 m 0.1,0.2 c 0,0 0,0.1 0,0.2 0.1,1 0.2,2.1 0.2,3.3 0,-1.2 -0.1,-2.3 -0.2,-3.3 0,-0.1 0,-0.2 0,-0.2"
         style="fill:#dfd8d4;fill-opacity:1;fill-rule:nonzero;stroke:none"
         id="path46" />
      <path
         d="m 10135.1,15011.4 c 0,60.9 4.9,120.3 15.9,177 24.4,126.1 56.9,267.7 94.3,417.7 -37.4,-150 -69.9,-291.6 -94.3,-417.7 -11,-56.7 -15.9,-116.1 -15.9,-177 m 110.5,595.9 c 0.1,0.5 0.2,1 0.4,1.4 -0.2,-0.4 -0.3,-0.9 -0.4,-1.4 m 0.5,2.1 c 0.1,0.3 0.2,0.6 0.2,0.9 0,-0.3 -0.1,-0.6 -0.2,-0.9"
         style="fill:#131c2e;fill-opacity:1;fill-rule:nonzero;stroke:none"
         id="path48" />
      <path
         d="m 10423,13825.2 c -404.7,743.7 -350.6,1914.6 -350.6,1914.6 -63.1,-28.4 -144.6,-38.2 -227.53,-38.2 -188.65,0 -384.25,51 -384.25,51 355.56,0 613.18,314.3 652.78,681.8 40.2,374 104.4,703.8 349.8,1001.8 l 0.1,0.1 c 94.1,30.1 192.5,38.6 292.3,40.9 -89,-397.8 -345.7,-1212.3 -509.3,-1866.9 0,-0.3 -0.1,-0.6 -0.2,-0.9 0,-0.2 -0.1,-0.5 -0.1,-0.7 -0.2,-0.4 -0.3,-0.9 -0.4,-1.4 -0.1,-0.4 -0.2,-0.8 -0.3,-1.2 -37.4,-150 -69.9,-291.6 -94.3,-417.7 -11,-56.7 -15.9,-116.1 -15.9,-177 0.2,-484.6 309.2,-1065.5 309.3,-1154.4 0,-1.2 -0.1,-2.3 -0.2,-3.3 0,-0.1 0,-0.2 0,-0.2 0,-0.1 0,-0.1 -0.1,-0.2 0,0 0,0 0,0 -1,-7.7 -8.3,-17.2 -21.1,-28.1"
         style="fill:#ddbeb7;fill-opacity:1;fill-rule:nonzero;stroke:none"
         id="path50" />
      <path
         d="m 9667.55,18384.6 c 31.82,-265.2 434.45,-450.1 521.25,-450 0,0 6.6,-73 -45.8,-186.8 -45.9,-99.8 -267.74,-786 -1021.03,-786 -753.2,0 -811.68,868.6 -621.74,859.1 224.59,-11.3 578.82,261.4 610.14,488.9 20.48,148.5 189.45,29.2 341.56,54.4 l 215.62,20.4"
         style="fill:#f79187;fill-opacity:1;fill-rule:nonzero;stroke:none"
         id="path52" />
      <path
         d="m 9684.96,18454.8 c 0,0 -0.01,0.1 -0.02,0.1 18.55,306.1 49.86,646.7 92.37,884 h 0.01 c -42.52,-237.4 -73.81,-578 -92.36,-884.1 m -575.99,390.3 c -0.06,0 -0.12,0 -0.18,0 -9.68,36 -22.54,67.4 -39.38,92.7 16.88,-25.3 29.87,-56.7 39.56,-92.7 m -39.84,93.2 c -0.05,0 -0.09,0.1 -0.14,0.2 0.05,-0.1 0.09,-0.2 0.14,-0.2 m -2.26,3.3 c -0.01,0 -0.02,0 -0.02,0 h 0.02"
         style="fill:#131c2e;fill-opacity:1;fill-rule:nonzero;stroke:none"
         id="path54" />
      <path
         d="m 9684.94,18454.9 c -1.08,6.6 -53.35,316.6 -273.95,367.8 -100.97,23.5 -209.35,3.2 -302.02,22.4 -9.69,36 -22.68,67.4 -39.56,92.7 -0.09,0.2 -0.18,0.3 -0.28,0.5 -0.05,0 -0.09,0.1 -0.14,0.2 -0.7,1 -1.41,2.1 -2.12,3.1 h -0.02 c -0.19,0.3 -0.37,0.5 -0.55,0.8 v 0 c -11.52,16.4 -22.65,32 -33.32,47.1 52.97,-22.3 104.98,-32.2 155.59,-32.2 5.98,0 11.94,0.1 17.88,0.4 5.94,-0.3 11.91,-0.4 17.89,-0.4 76.43,0 156,22.7 237.26,76 117.52,85.1 233.22,187.6 315.71,305.6 -42.51,-237.3 -73.82,-577.9 -92.37,-884"
         style="fill:#d97d73;fill-opacity:1;fill-rule:nonzero;stroke:none"
         id="path56" />
      <path
         d="M 9149.18,13853.7 H 7855.89 C 7395.17,12744.9 7068.5,4150.6 7068.5,4150.6 c 0,0 1375.16,-570.9 1907.86,-42.7 l 167.78,6577.3 5.04,3168.5"
         style="fill:#4659a4;fill-opacity:1;fill-rule:nonzero;stroke:none"
         id="path58" />
      <path
         d="m 7855.89,13853.7 h 2588.31 c 697.8,-798.4 777.6,-9703.1 777.6,-9703.1 0,0 -1399.84,-508.2 -1907.93,-42.7 l -167.66,6577.3 -1290.32,3168.5"
         style="fill:#4f64b8;fill-opacity:1;fill-rule:nonzero;stroke:none"
         id="path60" />
      <path
         d="m 11291.3,15008.8 c 348.7,190.4 440.9,-225.3 544.5,-459.7 140.6,-318.1 796.8,-1555.8 864.9,-1632.6 68,-76.7 131.9,-170 244.6,-238 130.1,-78.6 225.2,-162 303.8,-291.5 29.2,-47.9 72,-145.8 44.8,-171.3 -47.9,-44.9 -80.6,-0.9 -130.4,78.6 -13.6,21.8 -73.2,71.8 -98.3,117.5 37.7,-152.4 246.9,-351.7 279.1,-539.1 19.5,-113.7 0.6,-190.1 -125.2,-201.3 -154,-13.8 -161.4,115.2 -267.9,186.8 -43,28.9 -137.1,31.1 -224.2,176 -48.6,81 -97,184.1 -123.8,273.5 -34.2,114.1 -74.7,269.2 -114,352.1 -39.4,82.9 -1036,1332.1 -1167.7,1627.2 -155.9,349.5 -170.4,645.3 -30.2,721.8"
         style="fill:#f79187;fill-opacity:1;fill-rule:nonzero;stroke:none"
         id="path62" />
      <path
         d="m 10607.4,17765.1 c 576.3,62.3 567.3,-1017.3 667.1,-1375.5 95.2,-341.4 256.9,-1103.7 370.3,-1437.6 70.2,-206.3 156.2,-328.9 -28.1,-478.7 -184.3,-149.7 -334.8,-42 -391.7,88.9 -199.1,458 -711.6,2148.6 -794.9,2572.4 -90.6,460.4 177.3,630.5 177.3,630.5"
         style="fill:#f79187;fill-opacity:1;fill-rule:nonzero;stroke:none"
         id="path64" />
      <path
         d="m 9893.89,20565.7 c -157.05,370.3 -463.83,416.3 -463.83,416.3 -62.35,14.5 -124.8,25.6 -186.57,32.9 v 6.9 c -12.31,-0.8 -24.67,-2.1 -37.04,-3.3 -12.33,1.2 -24.73,2.5 -37,3.3 v -6.9 c -61.78,-7.3 -124.23,-18.4 -186.57,-32.9 0,0 -306.76,-46 -463.83,-416.3 -100.17,-236.1 -48.5,-345.6 -34.59,-567.9 13.21,-211.6 6.24,-254.1 44.47,-426.1 48.76,-219.4 233.25,-401.5 422.43,-538.4 87.6,-57.5 173.28,-79.4 255.09,-75.6 81.87,-3.8 167.53,18.1 255.15,75.6 189.15,136.9 373.65,319 422.4,538.4 38.24,172 31.27,214.5 44.48,426.1 13.91,222.3 65.57,331.8 -34.59,567.9"
         style="fill:#f79187;fill-opacity:1;fill-rule:nonzero;stroke:none"
         id="path66" />
      <path
         d="m 8786.53,19945.5 c -25.1,57.4 -116.65,8.5 -84.11,-47.1 31.58,-53.9 108.09,-7.8 84.11,47.1"
         style="fill:#090f1a;fill-opacity:1;fill-rule:nonzero;stroke:none"
         id="path68" />
      <path
         d="m 9517.32,19945.5 c -24.43,57.4 -116.73,8.7 -84.09,-47.1 31.72,-54.1 107.4,-7.8 84.09,47.1"
         style="fill:#090f1a;fill-opacity:1;fill-rule:nonzero;stroke:none"
         id="path70" />
      <path
         d="m 9346.78,20089.4 c 43.15,-1.5 76.13,31.9 121.32,30 45.28,-1.9 91.42,-37.8 135.27,-19.6 15.35,6.4 23.63,21.5 15.18,37.3 -23.99,44.9 -102.67,61.2 -150.45,60.1 -51.22,-1.1 -123.94,-32.2 -139.57,-83.9 -3.68,-12.1 6.26,-23.5 18.25,-23.9"
         style="fill:#1e2d4d;fill-opacity:1;fill-rule:nonzero;stroke:none"
         id="path72" />
      <path
         d="m 8887.25,20113.3 c -14.87,49.2 -80.26,78.1 -128.64,82.8 -50.03,5 -136.02,-11.6 -161.36,-59 -8.45,-15.8 -0.16,-30.9 15.19,-37.3 39.35,-16.3 83.76,11.5 123.75,18.2 50.73,8.4 85.37,-30.3 132.81,-28.6 11.99,0.4 21.92,11.8 18.25,23.9"
         style="fill:#1e2d4d;fill-opacity:1;fill-rule:nonzero;stroke:none"
         id="path74" />
      <path
         d="m 9742.05,19803.7 c -137.08,74 -461.73,-176.5 -246.74,-295.4 214.93,-119 383.81,221.4 246.74,295.4"
         style="fill:#f68577;fill-opacity:1;fill-rule:nonzero;stroke:none"
         id="path76" />
      <path
         d="m 8494.68,19808.2 c 4.51,-75.5 11.11,-132.3 34.25,-236.5 4.45,-20 10.36,-39.5 16.95,-58.9 51.15,-33.2 115.91,-43.1 185.61,-4.5 209.96,116.1 -94.75,357.7 -236.81,299.9"
         style="fill:#f68577;fill-opacity:1;fill-rule:nonzero;stroke:none"
         id="path78" />
      <path
         d="m 8974.97,19928.6 c -1.24,0 -2.59,0.7 -3.12,2 -12.24,29.3 -22.52,58.8 -38,86.8 -13.83,25 -30.1,48.4 -43.29,73.7 l 0.57,0.5 c 40.7,-41.3 81.75,-100.9 86.38,-160.3 0.14,-1.9 -1.13,-2.7 -2.54,-2.7"
         style="fill:#bb6c63;fill-opacity:1;fill-rule:nonzero;stroke:none"
         id="path80" />
      <path
         d="m 9048.81,19547.5 c -33.95,0 -72.99,11.2 -69,44.3 8.74,72.6 36.53,135.2 29.89,210.6 -0.1,1.1 0.89,1.8 1.85,1.8 0.77,0 1.52,-0.4 1.69,-1.3 9.32,-48.6 7.5,-93.5 -5.07,-141.3 -5.91,-22.5 -14.42,-46.3 -15.09,-69.8 -0.82,-28.9 37.6,-37.3 66.74,-37.3 10.43,0 19.68,1.1 25.51,2.7 0.24,0.1 0.46,0.1 0.68,0.1 2.2,0 2.8,-3.4 0.48,-4.3 -8.87,-3.4 -22.79,-5.5 -37.68,-5.5"
         style="fill:#bb6c63;fill-opacity:1;fill-rule:nonzero;stroke:none"
         id="path82" />
      <path
         d="m 8967.3,19412.4 c 203.26,-43.6 406.52,56.7 406.52,56.7 -40.55,-120.8 -316.73,-213.9 -353.55,-117.9 -12.53,32.7 -52.97,61.2 -52.97,61.2"
         style="fill:#f2f2f0;fill-opacity:1;fill-rule:nonzero;stroke:none"
         id="path84" />
      <path
         d="m 9150.18,19144.6 c -6.91,0 -12.56,8.9 -6.36,14.5 18.36,16.7 45.04,32 70.82,32 11.85,0 23.5,-3.3 34.07,-11.1 5.36,-3.9 3.59,-12 -3.39,-12.5 -32.85,-2.2 -61.6,-5.5 -91.1,-21.9 -1.35,-0.7 -2.72,-1 -4.04,-1"
         style="fill:#d97d73;fill-opacity:1;fill-rule:nonzero;stroke:none"
         id="path86" />
      <path
         d="m 10583,17739.8 c -87.1,216.6 -263.6,380.5 -365.6,591.7 -121.1,251 -116.2,457.6 -40.9,719.4 56.6,196.7 125.6,565.2 117.8,768 -6.9,179.3 -44.8,229.5 -79.4,619.2 -19.7,221.8 -178.3,733.8 -714.19,839.6 -401.4,79.2 -854.39,14.5 -1119.28,-326.5 -385.88,-496.7 -148.36,-1089.3 -184.12,-1649.6 -16.26,-254.8 -162.65,-394 -251.27,-621.3 -86.23,-221.1 -57.55,-433.7 55.61,-635.2 106.09,-189 209.5,-335.3 127.3,-565.5 -85.3,-238.7 -316.48,-394.9 -276.47,-677.3 32.61,-229.9 260.29,-439.6 497.44,-387 578.07,128.2 294.17,905 389.66,1284.6 58.55,232.9 165.92,421.6 69.07,663.1 -110.96,276.7 -96.63,573.5 -236.76,836.2 -84,157.5 -78.58,326.2 -66.97,502.5 29.49,448.8 235.97,834.4 656.73,1028.6 420.06,193.8 627.73,-396.3 700.07,-835.6 29.12,-3.4 46.14,-193.7 44.37,-280.1 -4.14,-201.3 -117.06,-366.8 -191.8,-547.1 -87.53,-211.3 -158.43,-422.3 -66.83,-642.1 73.92,-177.4 208.49,-326.7 271.53,-509.8 84.81,-246.2 -73.64,-426.1 -146.65,-652.2 -53.58,-165.7 -30.7,-384 137.1,-476.5 206.26,-113.8 612.96,-1.4 685.86,234 71.6,231.4 79.8,489.8 -12.3,718.9"
         style="fill:#25365d;fill-opacity:1;fill-rule:nonzero;stroke:none"
         id="path88" />
      <path
         d="m 9861.72,19894.7 c 37.12,150.8 269.18,287.2 298.98,50.2 24.5,-195.3 -200.57,-598.4 -301.24,-229.9 l 2.26,179.7"
         style="fill:#f79187;fill-opacity:1;fill-rule:nonzero;stroke:none"
         id="path90" />
      <path
         d="m 8607.3,19624 c 18.43,50.4 21.5,99.7 29.74,152.8 8.56,55 19.19,109.8 32.78,163.8 30.46,121.2 77.49,241.5 145.41,346.7 74.78,115.9 171.83,212.3 276.9,300.6 59.27,49.9 123.98,93.9 190.04,134.2 35.3,21.5 71.72,41.1 108.52,59.9 40.69,20.8 85.98,38.2 118.38,71.3 18.3,18.7 5.32,52 -21.44,51.8 -81.87,-0.7 -167.96,-59.9 -236.35,-100.2 -69.71,-41 -135.03,-88.5 -196.72,-140.7 -112.14,-95 -202.53,-215 -274.07,-342.8 -63.68,-113.8 -114.52,-233.2 -148.24,-359.3 -27.64,-103.4 -60.83,-233 -31.66,-338.1 0.97,-3.5 5.57,-3.1 6.71,0"
         style="fill:#25365d;fill-opacity:1;fill-rule:nonzero;stroke:none"
         id="path92" />
      <path
         d="m 9291.87,20791.1 c 23.08,-34.2 56.71,-50.2 88.05,-76.3 37.53,-31.1 69.44,-68.8 97.35,-108.6 56.99,-81.4 97.09,-172.3 128.22,-266.3 32.39,-97.7 53.81,-199 71.22,-300.5 16.93,-98.6 22.44,-204.2 55.91,-299 5.28,-15 24.54,-11.3 26.36,3.6 12.52,102.1 -7.95,210.6 -24.93,311.3 -18.59,110.2 -43.78,219.5 -80.09,325.4 -32.69,95.3 -75.88,190.5 -138.79,269.9 -47.37,59.7 -131.97,159.3 -216.01,153.3 -5.92,-0.5 -11.14,-7.1 -7.29,-12.8"
         style="fill:#25365d;fill-opacity:1;fill-rule:nonzero;stroke:none"
         id="path94" />
      <path
         d="m 8273.23,20639.2 c -81.16,-115 -87.37,-280.6 -101.47,-416.1 -19.4,-186.5 -27.68,-374.2 -37.28,-561.3 -3.25,-63.3 -6.67,-126.5 -9.55,-189.8 -6.28,-138.1 -36.94,-273.6 -67.06,-408 -56.78,-253.4 -114.5,-535.2 -8.86,-784.2 5.47,-12.9 24.82,-3.4 21.8,9.2 -31.61,132.2 -44.9,259.9 -31.97,395.5 12.88,135 45.9,267.8 74.69,400 27.41,126 51.96,252.7 58.94,381.7 3.33,61.7 2.81,123.7 4.04,185.4 3.55,178.7 11.25,357 27.32,535 7.99,88.6 18.32,177.1 34.61,264.6 11.17,60 19.09,126.6 43.38,183 2.51,5.9 -4.83,10.4 -8.59,5"
         style="fill:#25365d;fill-opacity:1;fill-rule:nonzero;stroke:none"
         id="path96" />
      <path
         d="m 9790.36,19249.4 c -51.77,-129.6 -120.79,-251.3 -167.89,-383.3 -45.8,-128.3 -70.49,-265.4 -51.89,-401.3 19.52,-142.6 90.45,-274.2 134.68,-409.6 50.06,-153.3 2.79,-308.3 19.92,-463.7 1.27,-11.5 16.54,-14.4 20.5,-2.8 44.4,130.4 62.45,278.8 38.11,414.5 -26.02,145.1 -116.7,267.3 -155.53,407.8 -40.74,147.5 -11.17,301.6 37.44,443.2 22.18,64.6 48.16,128 73.48,191.4 26.03,65.3 43.37,133.1 60.77,201.1 1.62,6.4 -7.27,8.5 -9.59,2.7"
         style="fill:#25365d;fill-opacity:1;fill-rule:nonzero;stroke:none"
         id="path98" />
      <path
         d="m 10069,20713.8 c 95.6,-144.1 137.7,-313.7 164.6,-482.4 31.8,-199.1 35,-399.9 32.5,-601 -5.3,-412.4 -171,-902 80.7,-1273.5 35.6,-52.5 77.4,-105.1 134.4,-134.8 14.1,-7.3 31.4,7.8 22.4,22.5 -30.8,50.6 -72.1,93.1 -103.8,143.3 -33.2,52.5 -58.9,110.5 -78.4,169.3 -37.5,112.9 -45.9,232.8 -44.9,350.9 1.8,216.7 42.6,430.7 49.7,647 6.3,190.8 -8.9,381.4 -31.6,570.8 -21.2,177.4 -51.3,369.2 -145.1,524.7 -17.8,29.4 -44.8,52.3 -74.4,69.3 -3.7,2.2 -8.6,-2.2 -6.1,-6.1"
         style="fill:#25365d;fill-opacity:1;fill-rule:nonzero;stroke:none"
         id="path100" />
    </g>
  </g>
</svg>
